<svg width="100" height="100" viewBox="0 0 51 50" fill="none" xmlns="http://www.w3.org/2000/svg">
<path fill-rule="evenodd" clip-rule="evenodd" d="M35.1987 14.0472C35.1817 14.0746 35.1355 14.0971 35.096 14.0971C34.9817 14.0971 35.0476 14.0327 28.6668 20.4014C22.1306 26.9253 22.3727 26.7023 21.8325 26.6991C21.3518 26.6964 21.3692 26.7113 18.3084 23.6652C14.5832 19.9577 14.9665 20.1067 13.2791 21.7107C12.8661 22.1032 12.3612 22.5802 12.1571 22.7707C10.7077 24.1228 10.5913 24.311 10.7993 24.9665C10.8912 25.2564 21.109 35.4844 21.4863 35.6641C21.764 35.7966 21.9732 35.8131 22.2813 35.7267C22.5423 35.6535 39.3675 18.9193 39.5316 18.5695C39.6571 18.3023 39.6552 17.9017 39.5271 17.6321C39.393 17.3497 36.1319 14.0971 35.9829 14.0971C35.9265 14.0971 35.8663 14.0746 35.8493 14.0472C35.8323 14.0197 35.6859 13.9972 35.524 13.9972C35.3621 13.9972 35.2157 14.0197 35.1987 14.0472Z" fill="#EBEFF3"/>
<path fill-rule="evenodd" clip-rule="evenodd" d="M22.4874 -0.055431C22.2673 -0.0469359 22.0658 -0.0184526 22.0395 0.00778207C22.0133 0.0338918 21.84 0.0553792 21.6545 0.0553792C21.469 0.0553792 21.3032 0.0778661 21.2862 0.10535C21.2692 0.132834 21.1484 0.155321 21.0179 0.155321C20.8874 0.155321 20.7593 0.176558 20.7332 0.202418C20.707 0.228403 20.5685 0.254763 20.4254 0.261259C20.2823 0.26763 20.1767 0.291366 20.1907 0.314103C20.2047 0.336715 20.1035 0.355204 19.9659 0.355204C19.8282 0.355204 19.7017 0.377691 19.6847 0.405175C19.6677 0.432659 19.5776 0.455145 19.4845 0.455145C19.3915 0.455145 19.3014 0.477632 19.2844 0.505116C19.2673 0.5326 19.1759 0.555087 19.0812 0.555087C18.9865 0.555087 18.909 0.577574 18.909 0.605058C18.909 0.632542 18.8189 0.655028 18.7088 0.655028C18.5987 0.655028 18.5087 0.677515 18.5087 0.704999C18.5087 0.732483 18.4425 0.75497 18.3615 0.75497C18.2806 0.75497 18.2004 0.777457 18.1834 0.804941C18.1663 0.832425 18.0693 0.855286 17.9677 0.855661C17.83 0.856286 17.8021 0.868778 17.8581 0.904882C17.913 0.940361 17.8762 0.953479 17.7204 0.954103C17.6035 0.954478 17.5078 0.974467 17.5078 0.998328C17.5078 1.02219 17.4683 1.04068 17.4202 1.03918C17.372 1.0378 17.265 1.0538 17.1825 1.07466C17.0363 1.11151 16.9957 1.126 16.682 1.25305C16.5994 1.28653 16.5265 1.31252 16.52 1.31077C16.5135 1.30902 16.4046 1.352 16.2781 1.40609C16.1517 1.46018 16.005 1.50453 15.9522 1.50453C15.8994 1.50453 15.8563 1.52152 15.8563 1.54226C15.8563 1.56312 15.7831 1.60947 15.6936 1.64557C15.6042 1.68155 15.4918 1.73202 15.444 1.75763C15.3962 1.78337 15.3118 1.80436 15.2563 1.80436C15.2009 1.80436 15.1556 1.82684 15.1556 1.85433C15.1556 1.88181 15.1106 1.9043 15.0555 1.9043C15.0005 1.9043 14.9554 1.92678 14.9554 1.95427C14.9554 1.98175 14.9214 2.00424 14.8798 2.00424C14.8381 2.00424 14.7649 2.02423 14.7171 2.04871C14.6693 2.0732 14.5176 2.14603 14.3799 2.21049C14.2423 2.27496 14.1184 2.33929 14.1047 2.35341C14.0475 2.412 13.6391 2.60389 13.5716 2.60389C13.5312 2.60389 13.5121 2.62638 13.5292 2.65386C13.5467 2.68222 13.5046 2.70383 13.4321 2.70383C13.3616 2.70383 13.304 2.72632 13.304 2.7538C13.304 2.78128 13.2744 2.80377 13.2383 2.80377C13.2022 2.80377 13.1243 2.84875 13.0652 2.90371C13.0062 2.95868 12.9334 3.00365 12.9036 3.00365C12.8738 3.00365 12.8028 3.047 12.7458 3.09997C12.6889 3.15282 12.6111 3.18417 12.5728 3.16956C12.5345 3.15482 12.5032 3.16781 12.5032 3.19817C12.5032 3.22865 12.4811 3.25351 12.4539 3.25351C12.3809 3.25351 11.8903 3.55945 11.7967 3.66327C11.7522 3.71274 11.6872 3.75322 11.6525 3.75322C11.6177 3.75322 11.5527 3.79257 11.5082 3.84066C11.4637 3.88876 11.3935 3.93548 11.3522 3.94435C11.3109 3.95335 11.2696 3.98146 11.2605 4.00682C11.2512 4.0323 11.2056 4.05304 11.1589 4.05304C11.1122 4.05304 11.0415 4.09801 11.0019 4.15298C10.9622 4.20795 10.9033 4.25292 10.871 4.25292C10.8387 4.25292 10.74 4.32038 10.6516 4.40284C10.5631 4.48529 10.4718 4.55275 10.4484 4.55275C10.425 4.55275 10.3484 4.61021 10.2781 4.68042C10.2074 4.75088 10.1246 4.79211 10.0929 4.77262C10.0575 4.75076 10.0493 4.75925 10.0713 4.79486C10.0929 4.82996 10.0732 4.85257 10.0206 4.85257C9.97307 4.85257 9.94817 4.86644 9.96519 4.88355C10.0006 4.91878 9.88073 5.05246 9.8138 5.05246C9.78953 5.05246 9.72034 5.0983 9.66003 5.1544C9.59985 5.21036 9.55056 5.24334 9.55056 5.2276C9.55056 5.21186 9.47049 5.27907 9.37252 5.37677C9.27469 5.47458 9.16984 5.5393 9.13956 5.52068C9.10766 5.50094 9.0989 5.50969 9.11855 5.54142C9.13706 5.5714 9.12005 5.61425 9.08064 5.63649C9.04123 5.65885 8.93375 5.74455 8.84192 5.827C8.74996 5.90945 8.61284 6.00877 8.53714 6.04787C8.46145 6.08685 8.39952 6.15244 8.39952 6.19354C8.39952 6.23476 8.38863 6.2575 8.37537 6.24426C8.35586 6.2249 7.64822 6.90412 7.41788 7.16335C7.3871 7.19795 7.31391 7.25929 7.25523 7.29964C7.19643 7.34012 7.14839 7.4057 7.14839 7.44543C7.14839 7.48516 7.137 7.50627 7.12299 7.4924C7.08833 7.45767 6.46389 8.06632 6.48604 8.11317C6.4958 8.13378 6.4724 8.15064 6.43412 8.15064C6.39583 8.15064 6.33265 8.21248 6.29362 8.28806C6.25445 8.36364 6.14961 8.50419 6.06028 8.60038C5.97107 8.69657 5.89788 8.79214 5.89763 8.81276C5.89751 8.83337 5.8621 8.85023 5.81919 8.85023C5.77627 8.85023 5.7535 8.87022 5.76864 8.89458C5.78365 8.91894 5.74087 9.00327 5.67343 9.08197C5.32987 9.48286 5.01383 9.88938 4.9504 10.0121C4.91137 10.0876 4.8607 10.1495 4.8378 10.1495C4.81503 10.1495 4.79626 10.1732 4.79626 10.2022C4.79626 10.2312 4.72883 10.3267 4.64638 10.4146C4.56393 10.5024 4.49637 10.5973 4.49624 10.6257C4.49612 10.6539 4.45095 10.7095 4.3959 10.7491C4.34085 10.7887 4.29581 10.8562 4.29581 10.899C4.29581 10.9419 4.25077 11.0093 4.19572 11.0489C4.14067 11.0885 4.09563 11.161 4.09563 11.2099C4.09563 11.2588 4.07311 11.2988 4.04558 11.2988C4.01806 11.2988 3.99554 11.3438 3.99554 11.3987C3.99554 11.4537 3.97677 11.4987 3.954 11.4987C3.9311 11.4987 3.88043 11.5605 3.8414 11.6361C3.80236 11.7117 3.7577 11.7848 3.74206 11.7985C3.66449 11.8667 3.3955 12.2983 3.43015 12.299C3.45205 12.2993 3.44041 12.3186 3.40413 12.3414C3.36797 12.3644 3.33081 12.4146 3.3218 12.4531C3.27739 12.6406 3.22909 12.748 3.18893 12.748C3.16466 12.748 3.14477 12.7879 3.14477 12.8369C3.14477 12.8857 3.09973 12.9582 3.04468 12.9978C2.98963 13.0374 2.94446 13.1042 2.94434 13.1462C2.94409 13.2439 2.71375 13.7001 2.6811 13.6675C2.66771 13.654 2.62693 13.7439 2.59052 13.8669C2.55411 13.99 2.51095 14.0825 2.49456 14.0724C2.47829 14.0623 2.46128 14.1028 2.45677 14.1624C2.45227 14.2218 2.42512 14.2784 2.39634 14.2879C2.36757 14.2975 2.34404 14.3485 2.34404 14.4011C2.34404 14.4538 2.32152 14.4969 2.294 14.4969C2.26647 14.4969 2.24395 14.5405 2.24395 14.5939C2.24395 14.6472 2.22143 14.7048 2.19391 14.7218C2.16638 14.7388 2.14386 14.7976 2.14386 14.8526C2.14386 14.9076 2.1251 14.941 2.1022 14.9269C2.07931 14.9128 2.03026 15.0126 1.9931 15.1488C1.95594 15.285 1.9119 15.3964 1.89526 15.3964C1.8785 15.3964 1.86111 15.4466 1.85648 15.5081C1.85185 15.5696 1.82458 15.6276 1.7958 15.6371C1.76702 15.6468 1.7435 15.6905 1.7435 15.7343C1.7435 15.8564 1.62877 16.146 1.58035 16.146C1.55671 16.146 1.55045 16.1671 1.56647 16.1928C1.58236 16.2187 1.53494 16.3907 1.461 16.5751C1.38693 16.7596 1.3265 16.9409 1.3265 16.978C1.3265 17.0151 1.31149 17.0454 1.29309 17.0454C1.2747 17.0454 1.25706 17.0735 1.25368 17.1079C1.23091 17.3441 1.17561 17.5728 1.1377 17.5867C1.11306 17.596 1.09291 17.6691 1.09291 17.7492C1.09291 17.8294 1.07039 17.8949 1.04287 17.8949C1.01534 17.8949 0.992823 17.9723 0.992823 18.0668C0.992823 18.1614 0.970303 18.2527 0.942778 18.2697C0.915253 18.2867 0.892733 18.378 0.892733 18.4726C0.892733 18.5672 0.870212 18.6445 0.842687 18.6445C0.815162 18.6445 0.792642 18.7331 0.792642 18.8414C0.792642 18.9497 0.770122 19.0523 0.742597 19.0693C0.715072 19.0862 0.692552 19.1888 0.692552 19.2971C0.692552 19.4054 0.670031 19.494 0.642506 19.494C0.614981 19.494 0.592461 19.6078 0.592461 19.7469C0.592461 19.9026 0.573319 19.9877 0.542416 19.9687C0.511263 19.9495 0.492371 20.0442 0.492371 20.2186C0.492371 20.3755 0.472227 20.4869 0.446579 20.4711C0.421431 20.4556 0.388277 20.5835 0.372763 20.7555C0.301323 21.5512 0.283932 21.6754 0.227381 21.7878C0.140678 21.9602 0.140678 27.8215 0.227381 27.9939C0.283932 28.1063 0.301323 28.2305 0.372763 29.0262C0.388277 29.1982 0.421431 29.3261 0.446579 29.3106C0.472227 29.2948 0.492371 29.4062 0.492371 29.5631C0.492371 29.7375 0.511263 29.8322 0.542416 29.813C0.572943 29.7941 0.592461 29.8698 0.592461 30.007C0.592461 30.1307 0.614981 30.2457 0.642506 30.2627C0.670031 30.2797 0.692552 30.3921 0.692552 30.5126C0.692552 30.633 0.715072 30.7454 0.742597 30.7624C0.770122 30.7794 0.792642 30.8595 0.792642 30.9403C0.792642 31.0211 0.815162 31.0872 0.842687 31.0872C0.870212 31.0872 0.892733 31.1758 0.892733 31.2841C0.892733 31.3924 0.915253 31.495 0.942778 31.512C0.970303 31.529 0.992823 31.6203 0.992823 31.7149C0.992823 31.8094 1.01534 31.8868 1.04287 31.8868C1.07039 31.8868 1.09291 31.9542 1.09291 32.0367C1.09291 32.1191 1.11543 32.1866 1.14296 32.1866C1.17048 32.1866 1.193 32.2414 1.193 32.3085C1.193 32.3756 1.21252 32.4426 1.23629 32.4573C1.26006 32.4719 1.27333 32.5408 1.26569 32.6101C1.25806 32.6795 1.2762 32.7363 1.30586 32.7363C1.33551 32.7363 1.34564 32.7504 1.3285 32.7676C1.31124 32.7849 1.33 32.8776 1.37016 32.9736C1.41033 33.0697 1.44323 33.1905 1.44323 33.2421C1.44323 33.2937 1.46575 33.3359 1.49328 33.3359C1.5208 33.3359 1.54332 33.4034 1.54332 33.4858C1.54332 33.5683 1.56296 33.6357 1.58686 33.6357C1.61076 33.6357 1.6588 33.7369 1.69346 33.8606C1.72811 33.9843 1.77115 34.0855 1.78917 34.0855C1.80706 34.0855 1.82683 34.1461 1.83296 34.2201C1.83909 34.2941 1.86086 34.3672 1.88138 34.3825C1.92504 34.415 2.05128 34.7318 2.05679 34.8225C2.05879 34.8569 2.07918 34.885 2.1022 34.885C2.1251 34.885 2.14386 34.93 2.14386 34.9849C2.14386 35.0399 2.16638 35.0849 2.19391 35.0849C2.22143 35.0849 2.24395 35.1299 2.24395 35.1848C2.24395 35.2398 2.26397 35.2848 2.28849 35.2848C2.31302 35.2848 2.36244 35.3845 2.39859 35.5064C2.43463 35.6283 2.48217 35.717 2.50419 35.7034C2.52621 35.6898 2.54423 35.7159 2.54423 35.7612C2.54423 35.8067 2.61179 35.9669 2.69436 36.1172C2.77694 36.2673 2.8445 36.424 2.8445 36.4651C2.8445 36.5063 2.86702 36.526 2.89454 36.5091C2.92207 36.4921 2.94459 36.5202 2.94459 36.5716C2.94459 36.623 2.98963 36.7134 3.04468 36.7724C3.09973 36.8314 3.14477 36.9143 3.14477 36.9567C3.14477 36.999 3.16178 37.0337 3.18255 37.0337C3.22246 37.0337 3.35846 37.3095 3.37723 37.4285C3.38336 37.467 3.41151 37.5127 3.43979 37.5302C3.46806 37.5477 3.52549 37.6439 3.5674 37.7442C3.60944 37.8444 3.66599 37.9401 3.69314 37.957C3.72041 37.9737 3.77947 38.065 3.82451 38.1597C3.86955 38.2545 3.92998 38.3176 3.95875 38.2999C3.98778 38.2819 3.99629 38.2914 3.97777 38.3212C3.95951 38.3507 3.97852 38.4088 4.02006 38.4503C4.0616 38.4918 4.09563 38.5624 4.09563 38.6072C4.09563 38.6521 4.11815 38.6748 4.14567 38.6578C4.1732 38.6408 4.19572 38.6619 4.19572 38.7048C4.19572 38.7476 4.21824 38.7827 4.24576 38.7827C4.27329 38.7827 4.29581 38.8131 4.29581 38.8503C4.29581 38.8874 4.36337 38.9884 4.44595 39.0747C4.52852 39.161 4.59608 39.2606 4.59608 39.2959C4.59608 39.3313 4.64112 39.3927 4.69617 39.4323C4.75122 39.4719 4.79626 39.5332 4.79626 39.5683C4.79626 39.6035 4.81878 39.6322 4.84631 39.6322C4.87383 39.6322 4.89635 39.666 4.89635 39.7072C4.89635 39.7484 4.91887 39.7821 4.9464 39.7821C4.97392 39.7821 4.99644 39.8159 4.99644 39.8571C4.99644 39.8983 5.01896 39.932 5.04649 39.932C5.07401 39.932 5.09653 39.9695 5.09653 40.0154C5.09653 40.0611 5.11142 40.0837 5.12969 40.0656C5.14783 40.0474 5.21989 40.1167 5.28983 40.2196C5.4491 40.4541 5.4999 40.518 5.6095 40.6213C5.65767 40.6666 5.69708 40.7326 5.69708 40.7677C5.69708 40.8028 5.72097 40.8315 5.75012 40.8315C5.77928 40.8315 5.78916 40.854 5.77214 40.8815C5.75513 40.909 5.77627 40.9315 5.81919 40.9315C5.8621 40.9315 5.89726 40.9492 5.89726 40.9711C5.89726 40.9928 5.97608 41.094 6.07242 41.1961C6.16875 41.298 6.24757 41.4027 6.24757 41.4287C6.24757 41.4866 7.14826 42.3806 7.20669 42.3806C7.22971 42.3806 7.24848 42.4128 7.24848 42.4522C7.24848 42.4916 7.29239 42.5377 7.34607 42.5548C7.39962 42.5718 7.45742 42.6295 7.47443 42.6829C7.49157 42.7365 7.5231 42.7804 7.54475 42.7804C7.59266 42.7804 7.79785 42.9769 8.10588 43.3181C8.23349 43.4594 8.35173 43.5611 8.36862 43.5441C8.38563 43.5272 8.39952 43.5469 8.39952 43.5882C8.39952 43.6293 8.46095 43.6948 8.53602 43.7338C8.61109 43.7729 8.76297 43.8891 8.87357 43.9922C8.98417 44.0952 9.0929 44.1796 9.11529 44.1796C9.13781 44.1796 9.14006 44.2056 9.12042 44.2373C9.09878 44.2721 9.10666 44.2814 9.14006 44.2608C9.17047 44.242 9.27544 44.3042 9.37327 44.3991C9.47099 44.4939 9.62413 44.6172 9.71346 44.673C9.80279 44.7289 9.93679 44.8319 10.0114 44.9019C10.0858 44.9719 10.1702 45.0291 10.199 45.0291C10.2277 45.0291 10.2512 45.0463 10.2512 45.0673C10.2512 45.0883 10.3413 45.161 10.4514 45.229C10.5615 45.2969 10.6516 45.3696 10.6516 45.3906C10.6516 45.4116 10.6863 45.4288 10.7289 45.4288C10.7714 45.4288 10.8625 45.4851 10.9313 45.5538C11.0001 45.6225 11.0744 45.6787 11.0965 45.6787C11.1185 45.6787 11.2019 45.7349 11.2819 45.8036C11.3618 45.8722 11.4554 45.9284 11.4898 45.9285C11.5242 45.9285 11.5524 45.951 11.5524 45.9785C11.5524 46.006 11.5955 46.0285 11.6483 46.0285C11.701 46.0285 11.7517 46.0455 11.7609 46.0663C11.7902 46.1329 12.1879 46.4265 12.2138 46.4008C12.2275 46.387 12.2673 46.4101 12.302 46.452C12.3368 46.494 12.3964 46.5282 12.4343 46.5282C12.4722 46.5282 12.5032 46.5544 12.5032 46.5865C12.5032 46.6185 12.5175 46.6305 12.535 46.6131C12.5524 46.5957 12.623 46.6256 12.6919 46.6797C12.7607 46.7338 12.8487 46.778 12.8875 46.778C12.9261 46.778 13.0062 46.823 13.0652 46.878C13.1243 46.933 13.2022 46.9779 13.2383 46.9779C13.2744 46.9779 13.304 47.0004 13.304 47.0279C13.304 47.0554 13.349 47.0779 13.404 47.0779C13.4591 47.0779 13.5041 47.1004 13.5041 47.1278C13.5041 47.1553 13.5492 47.1778 13.6042 47.1778C13.6593 47.1778 13.7043 47.2003 13.7043 47.2278C13.7043 47.2553 13.7412 47.2778 13.7864 47.2778C13.8314 47.2778 13.9782 47.3452 14.1124 47.4277C14.2466 47.5101 14.3812 47.5776 14.4115 47.5776C14.4416 47.5776 14.5483 47.6197 14.6484 47.671C15.1072 47.9065 15.4939 48.0773 15.5685 48.0773C15.6134 48.0773 15.6641 48.0998 15.6811 48.1273C15.6981 48.1547 15.757 48.1772 15.8121 48.1772C15.8671 48.1772 15.9013 48.195 15.8878 48.2166C15.8744 48.2382 15.9221 48.2608 15.9936 48.2667C16.0652 48.2727 16.1947 48.3193 16.2815 48.3704C16.3682 48.4215 16.5558 48.4932 16.6983 48.5296C16.8407 48.566 16.9573 48.616 16.9573 48.6406C16.9573 48.6652 16.9854 48.6752 17.0198 48.6629C17.0542 48.6507 17.1441 48.6718 17.2195 48.7098C17.2949 48.7478 17.3681 48.7781 17.3823 48.7773C17.494 48.7704 17.808 48.8485 17.808 48.8832C17.808 48.9072 17.8995 48.9268 18.0112 48.9268C18.1229 48.9268 18.2019 48.9468 18.1867 48.9714C18.1608 49.0131 18.2658 49.0401 18.7214 49.1088C18.8246 49.1244 18.909 49.1573 18.909 49.1819C18.909 49.2065 18.9878 49.2266 19.0842 49.2266C19.1805 49.2266 19.2593 49.2491 19.2593 49.2766C19.2593 49.3041 19.3593 49.3266 19.4815 49.3266C19.6038 49.3266 19.7178 49.349 19.7348 49.3765C19.7518 49.404 19.867 49.4265 19.9909 49.4265C20.1147 49.4265 20.2047 49.445 20.1907 49.4676C20.1767 49.4903 20.2823 49.5141 20.4254 49.5204C20.5685 49.5269 20.707 49.5533 20.7332 49.5793C20.7593 49.6051 20.8874 49.6264 21.0179 49.6264C21.1484 49.6264 21.2692 49.6489 21.2862 49.6763C21.3032 49.7038 21.4716 49.7263 21.6603 49.7263C21.8578 49.7263 22.011 49.7488 22.0212 49.7794C22.0328 49.8144 22.5696 49.8425 23.6018 49.8621L25.1647 49.892V41.5064V33.1208L23.9222 34.3587C23.2387 35.0397 22.5912 35.6501 22.4834 35.7153C22.2414 35.8616 21.7018 35.8819 21.4463 35.7545C21.2174 35.6403 10.9199 25.3621 10.7876 25.1157C10.4706 24.5253 10.6534 24.0871 11.581 23.2138C12.4023 22.4408 12.4364 22.4086 13.3758 21.5178C14.2298 20.708 14.4032 20.5982 14.8303 20.597C15.3322 20.5956 15.3449 20.6065 18.3967 23.6497C21.3806 26.6252 21.3975 26.6398 21.8433 26.6398C22.2593 26.6398 22.4287 26.509 23.8354 25.1026L25.1647 23.7731V11.8377V-0.0976562L24.0261 -0.084414C23.4 -0.0770433 22.7076 -0.0640509 22.4874 -0.055431Z" fill="#04DC74"/>
<path fill-rule="evenodd" clip-rule="evenodd" d="M25.1648 11.8286V23.7653L30.0067 18.9377C35.1351 13.8244 34.9993 13.9472 35.5272 13.9472C36.0385 13.9472 36.1091 14.0025 37.9162 15.8162C39.7432 17.6498 39.7689 17.6842 39.7138 18.217C39.6657 18.6828 39.629 18.7216 32.2979 26.04L25.1648 33.1609V41.5256V49.8902L26.6286 49.8556C28.2917 49.8163 28.3176 49.8148 28.3176 49.7638C28.3176 49.7432 28.4753 49.7263 28.668 49.7263C28.8681 49.7263 29.0183 49.7049 29.0183 49.6763C29.0183 49.6482 29.159 49.6264 29.3406 49.6264C29.5179 49.6264 29.6769 49.6039 29.6939 49.5764C29.7109 49.5489 29.8249 49.5264 29.9471 49.5264C30.0694 49.5264 30.1693 49.5039 30.1693 49.4765C30.1693 49.449 30.2608 49.4265 30.3725 49.4265C30.4951 49.4265 30.5633 49.4067 30.5447 49.3765C30.5255 49.3455 30.6192 49.3265 30.7919 49.3265C30.9449 49.3265 31.0701 49.3041 31.0701 49.2766C31.0701 49.2491 31.1602 49.2266 31.2703 49.2266C31.3804 49.2266 31.4705 49.2041 31.4705 49.1766C31.4705 49.1491 31.562 49.1267 31.6737 49.1267C31.7963 49.1267 31.8645 49.1069 31.8458 49.0767C31.8274 49.0471 31.8856 49.0267 31.9888 49.0267C32.0846 49.0267 32.1703 49.005 32.1795 48.9784C32.1886 48.9518 32.2693 48.9244 32.3588 48.9178C32.4483 48.911 32.5214 48.8907 32.5214 48.8726C32.5214 48.8546 32.636 48.8246 32.7761 48.806C32.9161 48.7875 33.0681 48.7525 33.1139 48.7284C33.2012 48.6823 33.6052 48.5289 33.6471 48.526C33.6984 48.5224 33.8513 48.4678 33.9346 48.4234C33.9824 48.398 34.0668 48.3771 34.1223 48.3771C34.1777 48.3771 34.223 48.3546 34.223 48.3271C34.223 48.2996 34.2666 48.2772 34.3201 48.2772C34.3735 48.2772 34.4312 48.2547 34.4482 48.2272C34.4652 48.1997 34.5229 48.1772 34.5763 48.1772C34.6297 48.1772 34.6734 48.1547 34.6734 48.1272C34.6734 48.0998 34.741 48.0773 34.8235 48.0773C34.9061 48.0773 34.9737 48.0548 34.9737 48.0273C34.9737 47.9998 35.0091 47.9773 35.0524 47.9773C35.0955 47.9773 35.165 47.9434 35.2065 47.9019C35.248 47.8604 35.3027 47.8393 35.328 47.8549C35.3534 47.8705 35.374 47.8595 35.374 47.8304C35.374 47.8013 35.4191 47.7775 35.4741 47.7775C35.5292 47.7775 35.5742 47.755 35.5742 47.7275C35.5742 47.7 35.6192 47.6775 35.6743 47.6775C35.7293 47.6775 35.7744 47.655 35.7744 47.6275C35.7744 47.6001 35.8419 47.5776 35.9245 47.5776C36.0071 47.5776 36.0747 47.5551 36.0747 47.5276C36.0747 47.5001 36.1253 47.4773 36.1873 47.4769C36.2783 47.4763 36.2855 47.4669 36.2248 47.4277C36.1662 47.3899 36.1801 47.3791 36.2874 47.3784C36.363 47.3781 36.425 47.3552 36.425 47.3277C36.425 47.3002 36.4681 47.2777 36.5209 47.2777C36.5736 47.2777 36.6243 47.2609 36.6335 47.2403C36.6592 47.1825 37.0746 46.978 37.1679 46.9772C37.2397 46.9765 37.2407 46.9699 37.1757 46.9279C37.115 46.8887 37.1221 46.8794 37.2132 46.8787C37.2751 46.8784 37.3258 46.8555 37.3258 46.828C37.3258 46.8005 37.3681 46.778 37.4197 46.778C37.4714 46.778 37.5415 46.7446 37.5755 46.7036C37.6095 46.6627 37.6556 46.6404 37.6777 46.6541C37.6999 46.6679 37.752 46.6451 37.7936 46.6036C37.8351 46.5622 37.9046 46.5282 37.9477 46.5282C37.991 46.5282 38.0264 46.5057 38.0264 46.4782C38.0264 46.4507 38.0665 46.4282 38.1155 46.4282C38.1644 46.4282 38.237 46.3833 38.2766 46.3283C38.3163 46.2733 38.3774 46.2284 38.4123 46.2284C38.471 46.2284 38.5932 46.1435 38.7541 45.991C38.7904 45.9566 38.8504 45.9285 38.8876 45.9285C38.9247 45.9285 38.9877 45.8836 39.0273 45.8286C39.067 45.7736 39.1345 45.7286 39.1775 45.7286C39.2204 45.7286 39.2879 45.6837 39.3276 45.6287C39.3673 45.5737 39.4278 45.5288 39.462 45.5288C39.4963 45.5288 39.5484 45.4838 39.5778 45.4288C39.6072 45.3739 39.6644 45.3289 39.7047 45.3289C39.745 45.3289 39.778 45.3064 39.778 45.2789C39.778 45.2514 39.818 45.2289 39.8671 45.2289C39.916 45.2289 39.9886 45.184 40.0282 45.129C40.0679 45.074 40.1315 45.0291 40.1694 45.0291C40.2073 45.0291 40.3014 44.9616 40.3786 44.8791C40.4557 44.7967 40.5436 44.7292 40.5737 44.7292C40.604 44.7292 40.6288 44.7054 40.6288 44.6763C40.6288 44.6472 40.6489 44.6358 40.6734 44.651C40.6981 44.6661 40.7713 44.6114 40.8361 44.5295C40.901 44.4474 40.9772 44.3802 41.0056 44.3799C41.0339 44.3797 41.2108 44.2333 41.3987 44.0546C41.5868 43.876 41.7572 43.7298 41.7776 43.7298C41.8441 43.7298 42.029 43.5456 41.9958 43.5123C41.9779 43.4946 41.99 43.48 42.0227 43.48C42.1001 43.48 42.7323 42.8487 42.6936 42.81C42.6773 42.7937 42.7 42.7804 42.7439 42.7804C42.788 42.7804 42.8383 42.7354 42.8558 42.6804C42.8733 42.6255 42.9077 42.5805 42.9322 42.5805C42.9884 42.5805 43.9001 41.6815 43.8461 41.6795C43.8244 41.6786 43.8461 41.655 43.8942 41.627C43.9424 41.5991 43.9818 41.5525 43.9818 41.5237C43.9818 41.4949 44.0494 41.4083 44.1319 41.3312C44.2145 41.2541 44.2821 41.1652 44.2821 41.1333C44.2821 41.1015 44.3046 41.0894 44.3321 41.1064C44.3597 41.1233 44.3822 41.0985 44.3822 41.051C44.3822 41.0035 44.3971 40.9797 44.4152 40.9978C44.4464 41.0289 44.6215 40.8238 44.5915 40.7914C44.5837 40.783 44.6484 40.71 44.7354 40.629C44.8222 40.5481 44.874 40.4811 44.8503 40.4802C44.8268 40.4793 44.847 40.4557 44.8951 40.4278C44.9433 40.3998 44.9827 40.3532 44.9827 40.3243C44.9827 40.2955 45.0615 40.1931 45.1579 40.0969C45.2542 40.0008 45.333 39.8988 45.333 39.8705C45.333 39.8421 45.3816 39.7769 45.4408 39.7255C45.5001 39.6742 45.5226 39.6322 45.4909 39.6322C45.4591 39.6322 45.5233 39.5395 45.6333 39.4263C45.7434 39.313 45.8335 39.1943 45.8335 39.1625C45.8335 39.1306 45.8785 39.0722 45.9336 39.0326C45.9886 38.993 46.0337 38.9255 46.0337 38.8827C46.0337 38.8398 46.0787 38.7723 46.1338 38.7327C46.1888 38.6931 46.2338 38.6207 46.2338 38.5718C46.2338 38.5229 46.2577 38.4829 46.2869 38.4829C46.316 38.4829 46.3259 38.4604 46.3089 38.4329C46.2919 38.4054 46.313 38.3829 46.356 38.3829C46.4064 38.3829 46.434 38.3376 46.434 38.255C46.434 38.1826 46.4557 38.1406 46.4841 38.1581C46.5116 38.1751 46.5341 38.1642 46.5341 38.134C46.5341 38.1037 46.5792 38.0307 46.6342 37.9717C46.6893 37.9127 46.7343 37.8293 46.7344 37.7864C46.7344 37.7434 46.802 37.6296 46.8844 37.5334C46.967 37.4373 47.0482 37.2855 47.0651 37.1961C47.082 37.1068 47.1158 37.0337 47.1403 37.0337C47.1647 37.0337 47.1847 36.999 47.1847 36.9567C47.1847 36.9143 47.2297 36.8314 47.2848 36.7724C47.3398 36.7134 47.3849 36.6356 47.3849 36.5996C47.3849 36.5635 47.4074 36.534 47.4349 36.534C47.4625 36.534 47.485 36.4891 47.485 36.4341C47.485 36.3791 47.5075 36.3341 47.535 36.3341C47.5625 36.3341 47.5851 36.2892 47.5851 36.2342C47.5851 36.1792 47.6076 36.1343 47.6351 36.1343C47.6626 36.1343 47.6852 36.0893 47.6852 36.0343C47.6852 35.9794 47.7077 35.9344 47.7352 35.9344C47.7627 35.9344 47.7852 35.8894 47.7852 35.8344C47.7852 35.7795 47.8078 35.7345 47.8353 35.7345C47.8628 35.7345 47.8853 35.6783 47.8853 35.6096C47.8853 35.5409 47.9079 35.4846 47.9354 35.4846C47.9629 35.4846 47.9854 35.4397 47.9854 35.3847C47.9854 35.3297 48.0079 35.2848 48.0355 35.2848C48.063 35.2848 48.0855 35.2398 48.0855 35.1848C48.0855 35.1299 48.108 35.0849 48.1356 35.0849C48.1631 35.0849 48.1856 35.0399 48.1856 34.9849C48.1856 34.93 48.2081 34.885 48.2357 34.885C48.2632 34.885 48.2857 34.8175 48.2857 34.7351C48.2857 34.6526 48.3082 34.5852 48.3357 34.5852C48.3633 34.5852 48.3858 34.5276 48.3858 34.4572C48.3858 34.3848 48.4074 34.3428 48.4358 34.3603C48.4634 34.3773 48.4859 34.3551 48.4859 34.3108C48.4859 34.2667 48.5309 34.1374 48.586 34.0237C48.641 33.9099 48.6861 33.7761 48.6861 33.7263C48.6861 33.6765 48.7086 33.6357 48.7361 33.6357C48.7636 33.6357 48.7861 33.5556 48.7861 33.4578C48.7861 33.352 48.8064 33.2926 48.8362 33.3109C48.8646 33.3284 48.8862 33.2864 48.8862 33.214C48.8862 33.1436 48.9088 33.086 48.9363 33.086C48.9638 33.086 48.9867 33.0467 48.9871 32.9986C48.9875 32.9505 49.0202 32.8212 49.0599 32.7113C49.0996 32.6013 49.1331 32.4383 49.1342 32.349C49.1355 32.2597 49.159 32.1866 49.1865 32.1866C49.214 32.1866 49.2366 32.1191 49.2366 32.0367C49.2366 31.9542 49.2591 31.8867 49.2866 31.8867C49.3141 31.8867 49.3367 31.8629 49.3367 31.8338C49.3367 31.8047 49.3141 31.7948 49.2866 31.8118C49.2591 31.8288 49.2366 31.8189 49.2366 31.7898C49.2366 31.7607 49.2591 31.7368 49.2866 31.7368C49.3141 31.7368 49.3367 31.6806 49.3367 31.6119C49.3367 31.5432 49.3543 31.487 49.3758 31.487C49.3973 31.487 49.4197 31.4295 49.4255 31.3594C49.4314 31.2892 49.4588 31.1895 49.4864 31.1378C49.5142 31.0861 49.5368 30.9735 49.5368 30.8877C49.5368 30.8018 49.5552 30.7429 49.5776 30.7568C49.6001 30.7705 49.6239 30.6763 49.6304 30.5473C49.6369 30.4182 49.6636 30.3052 49.6896 30.2961C49.7157 30.2868 49.737 30.18 49.737 30.0587C49.737 29.9373 49.7595 29.8379 49.7871 29.8379C49.8146 29.8379 49.8371 29.7255 49.8371 29.5881C49.8371 29.4507 49.8596 29.3382 49.8871 29.3382C49.9149 29.3382 49.9372 29.2049 49.9372 29.0384C49.9372 28.8719 49.9595 28.7386 49.9872 28.7386C50.0148 28.7386 50.0373 28.6922 50.0373 28.6357C50.0373 28.5679 50.016 28.5448 49.9747 28.5681C49.9247 28.5963 49.9247 28.5899 49.9747 28.5361C50.0091 28.499 50.0373 28.3496 50.0373 28.2039C50.0373 28.0582 50.0568 27.9391 50.0807 27.9391C50.146 27.9391 50.1624 27.3337 50.1624 24.9158C50.1624 22.432 50.1448 21.7427 50.0813 21.7427C50.0571 21.7427 50.0373 21.5853 50.0373 21.3929C50.0373 21.193 50.0159 21.0431 49.9872 21.0431C49.9595 21.0431 49.9372 20.9098 49.9372 20.7433C49.9372 20.5767 49.9149 20.4434 49.8871 20.4434C49.8596 20.4434 49.8371 20.3329 49.8371 20.1977C49.8371 20.0627 49.8146 19.9446 49.7872 19.9354C49.7597 19.9262 49.7335 19.8232 49.7289 19.7064C49.7244 19.5896 49.7017 19.494 49.6787 19.494C49.6557 19.494 49.6369 19.3928 49.6369 19.2691C49.6369 19.1455 49.6144 19.0443 49.5869 19.0443C49.5594 19.0443 49.5368 18.9562 49.5368 18.8485C49.5368 18.7409 49.5151 18.6454 49.4884 18.6361C49.4618 18.627 49.4345 18.5479 49.428 18.4606C49.4213 18.3732 49.3981 18.3127 49.3763 18.3261C49.3545 18.3396 49.3367 18.2706 49.3367 18.1728C49.3367 18.075 49.3189 17.9949 49.2972 17.9949C49.2625 17.9949 49.2426 17.9159 49.2252 17.7075C49.2223 17.6732 49.2012 17.6451 49.1781 17.6451C49.1552 17.6451 49.1365 17.569 49.1365 17.4759C49.1365 17.32 49.038 16.9284 48.9308 16.6582C48.8256 16.3927 48.7718 16.2655 48.7302 16.1841C48.706 16.1363 48.6861 16.052 48.6861 15.9967C48.6861 15.9413 48.6635 15.8961 48.636 15.8961C48.6085 15.8961 48.586 15.8286 48.586 15.7462C48.586 15.6637 48.5634 15.5963 48.5359 15.5963C48.5084 15.5963 48.4859 15.5513 48.4859 15.4963C48.4859 15.4414 48.4634 15.3964 48.4358 15.3964C48.4083 15.3964 48.3858 15.3402 48.3858 15.2715C48.3858 15.2028 48.3633 15.1465 48.3357 15.1465C48.3082 15.1465 48.2857 15.089 48.2857 15.0186C48.2857 14.9462 48.2641 14.9042 48.2357 14.9217C48.2078 14.9389 48.1856 14.9009 48.1856 14.8357C48.1856 14.7714 48.1411 14.6868 48.0866 14.6476C48.0138 14.5952 48.0039 14.5661 48.0491 14.5374C48.0973 14.5068 48.097 14.4983 48.048 14.4977C48.0136 14.4973 47.9854 14.4519 47.9854 14.397C47.9854 14.342 47.9629 14.297 47.9354 14.297C47.9079 14.297 47.8853 14.2422 47.8853 14.1751C47.8853 14.108 47.8628 14.0392 47.8353 14.0222C47.8078 14.0052 47.7852 13.9464 47.7852 13.8914C47.7852 13.8364 47.7627 13.8053 47.7352 13.8223C47.7074 13.8394 47.6848 13.8018 47.6844 13.7379C47.6838 13.645 47.6741 13.6371 47.6351 13.6974C47.5958 13.758 47.5864 13.7509 47.5858 13.6599C47.5854 13.5981 47.5674 13.5475 47.5459 13.5475C47.5244 13.5475 47.5017 13.4869 47.4956 13.4128C47.4895 13.3389 47.4677 13.2658 47.4471 13.2504C47.4265 13.2352 47.3779 13.1608 47.3388 13.0852C47.2998 13.0097 47.2491 12.9478 47.2262 12.9478C47.2035 12.9478 47.1847 12.9029 47.1847 12.8479C47.1847 12.7929 47.1647 12.7479 47.1403 12.7479C47.1158 12.7479 47.081 12.6692 47.0628 12.573C47.0448 12.4769 47.0085 12.3982 46.9823 12.3982C46.956 12.3982 46.9345 12.3745 46.9345 12.3458C46.9345 12.3169 46.8444 12.1579 46.7343 11.9924C46.6242 11.8269 46.5341 11.6802 46.5341 11.6665C46.5341 11.6527 46.506 11.6101 46.4716 11.5718C46.3203 11.4035 46.2918 11.3575 46.3203 11.3292C46.3369 11.3124 46.3243 11.2988 46.2923 11.2988C46.2601 11.2988 46.2338 11.2588 46.2338 11.2098C46.2338 11.161 46.1888 11.0885 46.1338 11.0489C46.0787 11.0093 46.0337 10.9419 46.0337 10.899C46.0337 10.8562 45.9886 10.7887 45.9336 10.7491C45.8785 10.7095 45.8334 10.6539 45.8332 10.6257C45.8331 10.5973 45.7655 10.5024 45.6831 10.4146C45.6006 10.3267 45.5332 10.2199 45.5332 10.1772C45.5332 10.106 45.4815 10.0805 45.4013 10.112C45.3716 10.1237 45.2834 9.94521 45.2557 9.81704C45.2488 9.78543 45.1734 9.68649 45.0879 9.59729C45.0026 9.50809 44.9327 9.41939 44.9327 9.40015C44.9327 9.33519 44.7462 9.15005 44.6807 9.15005C44.645 9.15005 44.6299 9.13581 44.6473 9.11845C44.6945 9.07135 44.585 8.8927 44.5298 8.92668C44.5037 8.94292 44.4823 8.90844 44.4823 8.85023C44.4823 8.79201 44.4597 8.75828 44.4322 8.77527C44.4047 8.79226 44.3822 8.78077 44.3822 8.74966C44.3822 8.67346 44.2518 8.5474 44.213 8.58613C44.1959 8.60312 44.182 8.57951 44.182 8.53379C44.182 8.48794 44.161 8.45046 44.1353 8.45046C44.1097 8.45046 44.0744 8.40549 44.0569 8.35052C44.0394 8.29555 43.9872 8.2502 43.9409 8.24983C43.89 8.24933 43.8777 8.23459 43.91 8.21235C43.9421 8.19011 43.779 7.99273 43.4971 7.71277C43.2408 7.45817 43.0309 7.2649 43.0309 7.28314C43.0309 7.30151 42.9862 7.26241 42.9316 7.19632C42.8769 7.13036 42.7812 7.01505 42.7189 6.94034C42.6565 6.86564 42.5737 6.8038 42.5346 6.80292C42.4957 6.80205 42.4777 6.78756 42.4947 6.77044C42.5331 6.73209 42.4076 6.60154 42.3323 6.60154C42.3019 6.60154 42.2623 6.56294 42.2441 6.51572C42.1973 6.39391 41.7952 6.00189 41.7171 6.00189C41.6812 6.00189 41.6202 5.95817 41.5815 5.90458C41.543 5.85111 41.4929 5.81875 41.4704 5.83262C41.4479 5.84648 41.4295 5.82287 41.4295 5.78002C41.4295 5.73717 41.3972 5.70207 41.3578 5.70207C41.3184 5.70207 41.273 5.66072 41.2568 5.61012C41.2408 5.55953 41.1661 5.48682 41.0908 5.44847C41.0156 5.40999 40.9045 5.32779 40.8438 5.26557C40.7833 5.20336 40.7134 5.15239 40.6886 5.15239C40.6639 5.15239 40.5727 5.08468 40.486 5.0021C40.3994 4.9194 40.3281 4.88005 40.3278 4.91465C40.3273 4.95838 40.313 4.95538 40.281 4.90491C40.2557 4.86506 40.2462 4.81446 40.2597 4.79248C40.2732 4.77061 40.238 4.75262 40.1814 4.75262C40.1247 4.75262 40.0783 4.73014 40.0783 4.70265C40.0783 4.67517 40.0431 4.65268 40.0002 4.65268C39.9573 4.65268 39.9362 4.6302 39.9532 4.60271C39.9702 4.57523 39.9523 4.55274 39.9135 4.55274C39.8747 4.55274 39.7723 4.48528 39.6858 4.40283C39.5993 4.32038 39.4996 4.25292 39.4642 4.25292C39.4288 4.25292 39.3673 4.20794 39.3276 4.15298C39.2879 4.09801 39.2204 4.05303 39.1775 4.05303C39.1345 4.05303 39.067 4.00806 39.0273 3.95309C38.9877 3.89812 38.9151 3.85315 38.8662 3.85315C38.8171 3.85315 38.7771 3.82692 38.7771 3.79481C38.7771 3.76283 38.7635 3.75021 38.7468 3.76683C38.7302 3.78344 38.6683 3.74709 38.6092 3.68612C38.5501 3.62528 38.4399 3.54845 38.3642 3.51547C38.2885 3.48249 38.2266 3.43252 38.2266 3.40454C38.2266 3.37643 38.1851 3.35344 38.1341 3.35344C38.0834 3.35344 37.9898 3.30847 37.9263 3.2535C37.8204 3.1618 37.7552 3.13457 37.6683 3.14606C37.6503 3.14844 37.6082 3.11733 37.5746 3.07698C37.5411 3.03663 37.4714 3.00365 37.4197 3.00365C37.3681 3.00365 37.3258 2.98116 37.3258 2.95368C37.3258 2.92619 37.2751 2.90333 37.2132 2.90296C37.1221 2.90233 37.115 2.89296 37.1757 2.85373C37.2363 2.81451 37.2292 2.80514 37.1381 2.80451C37.0762 2.80414 37.0255 2.78128 37.0255 2.75379C37.0255 2.72631 36.9805 2.70382 36.9254 2.70382C36.8704 2.70382 36.8253 2.68134 36.8253 2.65385C36.8253 2.62637 36.7942 2.60388 36.756 2.60388C36.6522 2.60388 36.4216 2.47396 36.4591 2.4366C36.477 2.41861 36.4304 2.404 36.3553 2.404C36.2771 2.404 36.2321 2.38264 36.2498 2.35403C36.2668 2.32654 36.2501 2.30406 36.2127 2.30406C36.1183 2.30406 35.8754 2.18725 35.8749 2.14165C35.8746 2.12104 35.8227 2.10417 35.7594 2.10417C35.6275 2.10417 35.375 1.99761 35.3744 1.94177C35.3741 1.92116 35.329 1.90429 35.2739 1.90429C35.2189 1.90429 35.1738 1.8818 35.1738 1.85432C35.1738 1.82684 35.1288 1.80435 35.0738 1.80435C35.0187 1.80435 34.9737 1.78186 34.9737 1.75438C34.9737 1.72689 34.8935 1.70441 34.7955 1.70441C34.6895 1.70441 34.63 1.68417 34.6484 1.65444C34.6654 1.62695 34.633 1.60447 34.5763 1.60447C34.5196 1.60447 34.4732 1.58198 34.4732 1.5545C34.4732 1.52701 34.4169 1.50452 34.3481 1.50452C34.2793 1.50452 34.223 1.48678 34.223 1.46517C34.223 1.44356 34.1812 1.4227 34.1301 1.41882C34.0791 1.41508 33.9384 1.36735 33.8174 1.31301C33.6196 1.22406 33.4131 1.1611 33.3092 1.15798C33.2883 1.15723 33.2031 1.12162 33.12 1.07877C33.0369 1.0358 32.9486 1.01331 32.9238 1.02855C32.899 1.04392 32.8645 1.03355 32.8472 1.00569C32.83 0.977708 32.7495 0.954846 32.6686 0.954846C32.5876 0.954846 32.5214 0.932359 32.5214 0.904875C32.5214 0.877391 32.4426 0.854904 32.3463 0.854904C32.2499 0.854904 32.1711 0.832418 32.1711 0.804934C32.1711 0.77745 32.1049 0.754963 32.024 0.754963C31.943 0.754963 31.8628 0.732476 31.8458 0.704992C31.8288 0.677508 31.7249 0.655021 31.6148 0.655021C31.494 0.655021 31.4268 0.635158 31.4455 0.605051C31.4641 0.574818 31.3959 0.55508 31.2733 0.55508C31.1616 0.55508 31.0701 0.532593 31.0701 0.505109C31.0701 0.477625 30.9819 0.455138 30.8741 0.455138C30.7642 0.455138 30.667 0.427654 30.6528 0.392675C30.6336 0.345452 30.6132 0.348576 30.5697 0.405167C30.5261 0.461759 30.5057 0.464883 30.4866 0.41766C30.4727 0.383305 30.3955 0.355197 30.3153 0.355197C30.235 0.355197 30.1693 0.33271 30.1693 0.305226C30.1693 0.277742 30.0612 0.255255 29.9291 0.255255C29.797 0.255255 29.6586 0.227147 29.6214 0.192792C29.5675 0.142821 29.5611 0.142821 29.5894 0.192792C29.6088 0.227147 29.6009 0.255255 29.5718 0.255255C29.5426 0.255255 29.5187 0.232768 29.5187 0.205284C29.5187 0.177801 29.4188 0.155314 29.2965 0.155314C29.1743 0.155314 29.0603 0.132827 29.0433 0.105343C29.0263 0.077859 28.856 0.0553722 28.665 0.0553722C28.4739 0.0553722 28.3176 0.0337598 28.3176 0.00740023C28.3176 -0.0189593 28.2557 -0.0404468 28.18 -0.0401969C28.1043 -0.040072 27.3949 -0.0553131 26.6036 -0.0740521L25.1648 -0.108032V11.8286Z" fill="#04AC5C"/>
<path fill-rule="evenodd" clip-rule="evenodd" d="M34.9987 14.0333C34.8368 14.1148 24.9145 23.9835 24.9145 24.0632C24.9145 24.0895 27.1553 21.8755 29.894 19.1429C35.1816 13.8673 35.0341 14.0026 35.5055 13.9993C36.033 13.9957 36.0639 14.0193 37.8328 15.7878C39.6363 17.5906 39.6514 17.61 39.6494 18.1198C39.6475 18.615 40.1587 18.0723 32.1755 26.0527C28.1682 30.0584 24.9117 33.3359 24.9386 33.3359C25.0246 33.3359 39.3754 18.9787 39.533 18.7349C39.7324 18.4264 39.7775 18.0411 39.653 17.7079C39.5479 17.4267 36.4252 14.2458 36.0665 14.0547C35.822 13.9244 35.2386 13.9126 34.9987 14.0333ZM13.8488 21.0734C13.6551 21.2551 13.5181 21.3956 13.5445 21.3858C13.6071 21.3624 14.2674 20.7433 14.2298 20.7433C14.2139 20.7433 14.0425 20.8919 13.8488 21.0734ZM18.2941 23.5897C19.8412 25.1413 21.1136 26.4004 21.1216 26.3878C21.1296 26.3752 19.8637 25.1058 18.3086 23.5669L15.481 20.7687L18.2941 23.5897ZM12.8967 21.9684C12.7139 22.1466 12.5794 22.2924 12.5978 22.2924C12.6163 22.2924 12.7764 22.1462 12.9537 21.9675C13.131 21.7889 13.2655 21.6431 13.2525 21.6436C13.2396 21.6441 13.0795 21.7903 12.8967 21.9684ZM11.9703 22.843C11.8011 23.0073 11.6778 23.1419 11.6966 23.1419C11.7154 23.1419 11.8645 23.0069 12.0279 22.842C12.4125 22.454 12.3702 22.4548 11.9703 22.843ZM11.1353 23.6367C10.9519 23.8265 10.8018 23.9969 10.8018 24.0155C10.8018 24.0341 10.9171 23.9234 11.058 23.7694C11.199 23.6155 11.3709 23.4449 11.4401 23.3906C11.5093 23.3362 11.5441 23.2918 11.5174 23.2918C11.4907 23.2918 11.3187 23.4469 11.1353 23.6367ZM24.5874 24.351C24.4507 24.4938 24.3837 24.5781 24.4382 24.5384C24.5528 24.4548 24.7094 24.3023 24.8081 24.1779C24.9424 24.0085 24.832 24.0952 24.5874 24.351ZM10.6653 24.591C10.6653 24.7147 10.675 24.7653 10.6869 24.7034C10.6989 24.6416 10.6989 24.5404 10.6869 24.4786C10.675 24.4167 10.6653 24.4673 10.6653 24.591ZM23.9599 24.9783L23.8386 25.1157L23.9887 24.9908C24.0713 24.9221 24.1482 24.8602 24.1597 24.8534C24.1711 24.8465 24.1582 24.8409 24.1308 24.8409C24.1036 24.8409 24.0266 24.9027 23.9599 24.9783ZM10.8421 25.2156C10.8716 25.2706 13.2336 27.643 16.0909 30.4876L21.286 35.6595L16.0564 30.4144C13.1802 27.5295 10.8182 25.1572 10.8075 25.1424C10.7969 25.1277 10.8124 25.1607 10.8421 25.2156ZM23.5633 25.3656C23.4417 25.4892 23.3535 25.5904 23.3673 25.5904C23.381 25.5904 23.4918 25.4892 23.6134 25.3656C23.735 25.2419 23.8232 25.1407 23.8094 25.1407C23.7957 25.1407 23.6849 25.2419 23.5633 25.3656ZM22.6339 26.3011C22.5533 26.3891 22.5323 26.4282 22.5872 26.3881C22.7442 26.2733 22.8265 26.1873 22.8024 26.1632C22.7902 26.1511 22.7144 26.2132 22.6339 26.3011Z" fill="#68D7A5"/>
<path fill-rule="evenodd" clip-rule="evenodd" d="M37.6918 15.6958C38.5762 16.5755 39.3115 17.2953 39.3259 17.2953C39.3661 17.2953 36.4741 14.4099 36.2669 14.2432C36.1662 14.1623 36.8074 14.8159 37.6918 15.6958ZM39.6415 18.0949C39.6415 18.2185 39.6512 18.2691 39.6631 18.2073C39.6751 18.1454 39.6751 18.0443 39.6631 17.9824C39.6512 17.9206 39.6415 17.9712 39.6415 18.0949ZM31.02 27.1647C26.0591 32.1184 22.5161 35.6187 22.4143 35.6671C22.1464 35.7941 21.8432 35.8097 21.5734 35.7103C21.3667 35.6341 20.6652 34.9552 16.1066 30.4194L10.8768 25.2159L16.0815 30.4255C21.5605 35.9097 21.4792 35.8345 21.9368 35.8345C22.415 35.8345 22.1124 36.1217 31.0308 27.2064C35.6629 22.5761 39.462 18.778 39.4736 18.7661C39.4849 18.7542 39.4849 18.7445 39.4734 18.7445C39.4619 18.7445 35.6579 22.5336 31.02 27.1647ZM14.4614 20.6785C14.3229 20.7274 14.1211 20.8746 13.9109 21.08L13.5793 21.4043L13.9247 21.0985C14.4063 20.6721 14.6899 20.5858 15.1591 20.7228C15.4212 20.7993 15.5347 20.9055 18.3085 23.6656C19.8912 25.2404 21.2615 26.5669 21.3535 26.6132C21.5969 26.7354 22.0926 26.7279 22.3408 26.5981C22.583 26.4716 22.86 26.2443 22.7751 26.2418C22.7407 26.2408 22.7125 26.2578 22.7125 26.2794C22.7125 26.4126 22.1713 26.6399 21.8545 26.6399C21.3478 26.6399 21.3654 26.6548 18.3318 23.6341C15.0371 20.3533 15.1464 20.4367 14.4614 20.6785ZM12.6001 22.3096C12.1442 22.7536 11.8965 23.0034 12.0496 22.8646C12.2028 22.7256 12.5083 22.4412 12.7285 22.2323C12.9487 22.0233 13.2052 21.7821 13.2984 21.6961C13.3916 21.6102 13.4592 21.5315 13.4485 21.5211C13.4379 21.5107 13.056 21.8655 12.6001 22.3096ZM11.1758 23.6429C11.0131 23.8071 10.8922 23.9414 10.9071 23.9414C10.9491 23.9414 11.5112 23.3838 11.4901 23.3629C11.48 23.3528 11.3385 23.4787 11.1758 23.6429ZM25.0647 23.9164C25 23.9852 24.9633 24.0414 24.9831 24.0414C25.003 24.0414 25.0754 23.9852 25.1442 23.9164C25.213 23.8477 25.2498 23.7915 25.2258 23.7915C25.2018 23.7915 25.1293 23.8477 25.0647 23.9164ZM24.6201 24.3699C24.472 24.5208 24.3606 24.6544 24.3728 24.6664C24.3849 24.6785 24.5279 24.5541 24.6906 24.3899C24.8533 24.2256 24.9647 24.0922 24.9379 24.0933C24.9113 24.0945 24.7683 24.2189 24.6201 24.3699ZM10.7328 24.2681C10.7157 24.3128 10.7039 24.3982 10.7068 24.4578C10.7101 24.5262 10.7271 24.5019 10.753 24.3915C10.7968 24.2058 10.7849 24.1329 10.7328 24.2681ZM10.7024 24.7451C10.7028 24.8115 10.7253 24.8996 10.7525 24.9408C10.787 24.9936 10.7921 24.964 10.7695 24.8409C10.7298 24.6254 10.7014 24.5847 10.7024 24.7451ZM23.5366 25.4422C23.2357 25.7436 23.0063 25.9902 23.0267 25.9902C23.0765 25.9902 24.1282 24.9385 24.1033 24.9136C24.0925 24.903 23.8375 25.1409 23.5366 25.4422Z" fill="#84ECBC"/>
</svg>
