<svg id="svg" version="1.1" xmlns="http://www.w3.org/2000/svg" xmlns:xlink="http://www.w3.org/1999/xlink" width="400" height="400" viewBox="0, 0, 400,400"><g id="svgg"><path id="path0" d="M280.200 113.200 C 280.064 113.420,279.695 113.600,279.379 113.600 C 278.466 113.600,278.992 113.084,227.992 164.064 C 175.750 216.285,177.685 214.500,173.367 214.475 C 169.525 214.453,169.664 214.572,145.200 190.189 C 115.425 160.512,118.489 161.705,105.002 174.544 C 101.701 177.686,97.665 181.504,96.034 183.029 C 84.449 193.852,83.519 195.359,85.181 200.606 C 85.916 202.926,167.584 284.798,170.600 286.237 C 172.820 287.297,174.492 287.429,176.954 286.738 C 179.040 286.152,313.520 152.200,314.832 149.400 C 315.835 147.261,315.820 144.054,314.796 141.896 C 313.724 139.636,287.659 113.600,286.468 113.600 C 286.017 113.600,285.536 113.420,285.400 113.200 C 285.264 112.980,284.094 112.800,282.800 112.800 C 281.506 112.800,280.336 112.980,280.200 113.200 " stroke="none" fill="#ebeff3" fill-rule="evenodd"></path><path id="path1" d="M178.601 0.313 C 176.842 0.381,175.231 0.609,175.021 0.819 C 174.812 1.028,173.427 1.200,171.944 1.200 C 170.461 1.200,169.136 1.380,169.000 1.600 C 168.864 1.820,167.899 2.000,166.856 2.000 C 165.813 2.000,164.789 2.170,164.580 2.377 C 164.371 2.585,163.264 2.796,162.120 2.848 C 160.976 2.899,160.132 3.089,160.244 3.271 C 160.356 3.452,159.547 3.600,158.447 3.600 C 157.347 3.600,156.336 3.780,156.200 4.000 C 156.064 4.220,155.344 4.400,154.600 4.400 C 153.856 4.400,153.136 4.580,153.000 4.800 C 152.864 5.020,152.133 5.200,151.376 5.200 C 150.619 5.200,150.000 5.380,150.000 5.600 C 150.000 5.820,149.280 6.000,148.400 6.000 C 147.520 6.000,146.800 6.180,146.800 6.400 C 146.800 6.620,146.271 6.800,145.624 6.800 C 144.977 6.800,144.336 6.980,144.200 7.200 C 144.064 7.420,143.288 7.603,142.476 7.606 C 141.376 7.611,141.153 7.711,141.600 8.000 C 142.039 8.284,141.745 8.389,140.500 8.394 C 139.565 8.397,138.800 8.557,138.800 8.748 C 138.800 8.939,138.485 9.087,138.100 9.075 C 137.715 9.064,136.860 9.192,136.200 9.359 C 135.032 9.654,134.707 9.770,132.200 10.787 C 131.540 11.055,130.957 11.263,130.905 11.249 C 130.853 11.235,129.983 11.579,128.972 12.012 C 127.961 12.445,126.789 12.800,126.367 12.800 C 125.945 12.800,125.600 12.936,125.600 13.102 C 125.600 13.269,125.015 13.640,124.300 13.929 C 123.585 14.217,122.687 14.621,122.305 14.826 C 121.923 15.032,121.248 15.200,120.805 15.200 C 120.362 15.200,120.000 15.380,120.000 15.600 C 120.000 15.820,119.640 16.000,119.200 16.000 C 118.760 16.000,118.400 16.180,118.400 16.400 C 118.400 16.620,118.128 16.800,117.795 16.800 C 117.462 16.800,116.877 16.960,116.495 17.156 C 116.113 17.352,114.900 17.935,113.800 18.451 C 112.700 18.967,111.710 19.482,111.600 19.595 C 111.143 20.064,107.879 21.600,107.339 21.600 C 107.016 21.600,106.864 21.780,107.000 22.000 C 107.140 22.227,106.804 22.400,106.224 22.400 C 105.661 22.400,105.200 22.580,105.200 22.800 C 105.200 23.020,104.964 23.200,104.675 23.200 C 104.387 23.200,103.764 23.560,103.292 24.000 C 102.820 24.440,102.238 24.800,102.000 24.800 C 101.762 24.800,101.194 25.147,100.739 25.571 C 100.284 25.994,99.662 26.245,99.356 26.128 C 99.050 26.010,98.800 26.114,98.800 26.357 C 98.800 26.601,98.623 26.800,98.406 26.800 C 97.822 26.800,93.901 29.249,93.153 30.080 C 92.797 30.476,92.278 30.800,92.000 30.800 C 91.722 30.800,91.203 31.115,90.847 31.500 C 90.491 31.885,89.930 32.259,89.600 32.330 C 89.270 32.402,88.940 32.627,88.867 32.830 C 88.793 33.034,88.428 33.200,88.055 33.200 C 87.682 33.200,87.117 33.560,86.800 34.000 C 86.483 34.440,86.012 34.800,85.754 34.800 C 85.496 34.800,84.707 35.340,84.000 36.000 C 83.293 36.660,82.563 37.200,82.376 37.200 C 82.189 37.200,81.577 37.660,81.015 38.222 C 80.450 38.786,79.788 39.116,79.535 38.960 C 79.252 38.785,79.186 38.853,79.362 39.138 C 79.535 39.419,79.377 39.600,78.957 39.600 C 78.577 39.600,78.378 39.711,78.514 39.848 C 78.797 40.130,77.839 41.200,77.304 41.200 C 77.110 41.200,76.557 41.567,76.075 42.016 C 75.594 42.464,75.200 42.728,75.200 42.602 C 75.200 42.476,74.560 43.014,73.777 43.796 C 72.995 44.579,72.157 45.097,71.915 44.948 C 71.660 44.790,71.590 44.860,71.747 45.114 C 71.895 45.354,71.759 45.697,71.444 45.875 C 71.129 46.054,70.270 46.740,69.536 47.400 C 68.801 48.060,67.705 48.855,67.100 49.168 C 66.495 49.480,66.000 50.005,66.000 50.334 C 66.000 50.664,65.913 50.846,65.807 50.740 C 65.651 50.585,59.995 56.022,58.154 58.097 C 57.908 58.374,57.323 58.865,56.854 59.188 C 56.384 59.512,56.000 60.037,56.000 60.355 C 56.000 60.673,55.909 60.842,55.797 60.731 C 55.520 60.453,50.529 65.325,50.706 65.700 C 50.784 65.865,50.597 66.000,50.291 66.000 C 49.985 66.000,49.480 66.495,49.168 67.100 C 48.855 67.705,48.017 68.830,47.303 69.600 C 46.590 70.370,46.005 71.135,46.003 71.300 C 46.002 71.465,45.719 71.600,45.376 71.600 C 45.033 71.600,44.851 71.760,44.972 71.955 C 45.092 72.150,44.750 72.825,44.211 73.455 C 41.465 76.664,38.939 79.918,38.432 80.900 C 38.120 81.505,37.715 82.000,37.532 82.000 C 37.350 82.000,37.200 82.190,37.200 82.422 C 37.200 82.654,36.661 83.419,36.002 84.122 C 35.343 84.825,34.803 85.585,34.802 85.812 C 34.801 86.038,34.440 86.483,34.000 86.800 C 33.560 87.117,33.200 87.657,33.200 88.000 C 33.200 88.343,32.840 88.883,32.400 89.200 C 31.960 89.517,31.600 90.097,31.600 90.488 C 31.600 90.880,31.420 91.200,31.200 91.200 C 30.980 91.200,30.800 91.560,30.800 92.000 C 30.800 92.440,30.650 92.800,30.468 92.800 C 30.285 92.800,29.880 93.295,29.568 93.900 C 29.256 94.505,28.899 95.090,28.774 95.200 C 28.154 95.746,26.004 99.201,26.281 99.206 C 26.456 99.209,26.363 99.363,26.073 99.546 C 25.784 99.730,25.487 100.132,25.415 100.440 C 25.060 101.941,24.674 102.800,24.353 102.800 C 24.159 102.800,24.000 103.120,24.000 103.512 C 24.000 103.903,23.640 104.483,23.200 104.800 C 22.760 105.117,22.399 105.652,22.398 105.988 C 22.396 106.770,20.555 110.422,20.294 110.161 C 20.187 110.053,19.861 110.772,19.570 111.757 C 19.279 112.742,18.934 113.483,18.803 113.402 C 18.673 113.321,18.537 113.645,18.501 114.122 C 18.465 114.598,18.248 115.051,18.018 115.127 C 17.788 115.204,17.600 115.612,17.600 116.033 C 17.600 116.455,17.420 116.800,17.200 116.800 C 16.980 116.800,16.800 117.149,16.800 117.576 C 16.800 118.003,16.620 118.464,16.400 118.600 C 16.180 118.736,16.000 119.207,16.000 119.647 C 16.000 120.087,15.850 120.355,15.667 120.242 C 15.484 120.129,15.092 120.928,14.795 122.018 C 14.498 123.108,14.146 124.000,14.013 124.000 C 13.879 124.000,13.740 124.402,13.703 124.894 C 13.666 125.386,13.448 125.851,13.218 125.927 C 12.988 126.004,12.800 126.354,12.800 126.705 C 12.800 127.682,11.883 130.000,11.496 130.000 C 11.307 130.000,11.257 130.169,11.385 130.375 C 11.512 130.582,11.133 131.959,10.542 133.435 C 9.950 134.912,9.467 136.363,9.467 136.660 C 9.467 136.957,9.347 137.200,9.200 137.200 C 9.053 137.200,8.912 137.425,8.885 137.700 C 8.703 139.591,8.261 141.421,7.958 141.533 C 7.761 141.607,7.600 142.192,7.600 142.833 C 7.600 143.475,7.420 144.000,7.200 144.000 C 6.980 144.000,6.800 144.619,6.800 145.376 C 6.800 146.133,6.620 146.864,6.400 147.000 C 6.180 147.136,6.000 147.867,6.000 148.624 C 6.000 149.381,5.820 150.000,5.600 150.000 C 5.380 150.000,5.200 150.709,5.200 151.576 C 5.200 152.443,5.020 153.264,4.800 153.400 C 4.580 153.536,4.400 154.357,4.400 155.224 C 4.400 156.091,4.220 156.800,4.000 156.800 C 3.780 156.800,3.600 157.711,3.600 158.824 C 3.600 160.071,3.447 160.752,3.200 160.600 C 2.951 160.446,2.800 161.204,2.800 162.600 C 2.800 163.856,2.639 164.748,2.434 164.621 C 2.233 164.497,1.968 165.521,1.844 166.898 C 1.273 173.267,1.134 174.261,0.682 175.161 C -0.011 176.541,-0.011 223.459,0.682 224.839 C 1.134 225.739,1.273 226.733,1.844 233.102 C 1.968 234.479,2.233 235.503,2.434 235.379 C 2.639 235.252,2.800 236.144,2.800 237.400 C 2.800 238.796,2.951 239.554,3.200 239.400 C 3.444 239.249,3.600 239.855,3.600 240.953 C 3.600 241.943,3.780 242.864,4.000 243.000 C 4.220 243.136,4.400 244.036,4.400 245.000 C 4.400 245.964,4.580 246.864,4.800 247.000 C 5.020 247.136,5.200 247.777,5.200 248.424 C 5.200 249.071,5.380 249.600,5.600 249.600 C 5.820 249.600,6.000 250.309,6.000 251.176 C 6.000 252.043,6.180 252.864,6.400 253.000 C 6.620 253.136,6.800 253.867,6.800 254.624 C 6.800 255.381,6.980 256.000,7.200 256.000 C 7.420 256.000,7.600 256.540,7.600 257.200 C 7.600 257.860,7.780 258.400,8.000 258.400 C 8.220 258.400,8.400 258.839,8.400 259.376 C 8.400 259.913,8.556 260.449,8.746 260.567 C 8.936 260.684,9.042 261.235,8.981 261.790 C 8.920 262.346,9.065 262.800,9.302 262.800 C 9.539 262.800,9.620 262.913,9.483 263.051 C 9.345 263.189,9.495 263.931,9.816 264.700 C 10.137 265.469,10.400 266.436,10.400 266.849 C 10.400 267.262,10.580 267.600,10.800 267.600 C 11.020 267.600,11.200 268.140,11.200 268.800 C 11.200 269.460,11.357 270.000,11.548 270.000 C 11.739 270.000,12.123 270.810,12.400 271.800 C 12.677 272.790,13.021 273.600,13.165 273.600 C 13.308 273.600,13.466 274.085,13.515 274.678 C 13.564 275.270,13.738 275.855,13.902 275.978 C 14.251 276.238,15.260 278.774,15.304 279.500 C 15.320 279.775,15.483 280.000,15.667 280.000 C 15.850 280.000,16.000 280.360,16.000 280.800 C 16.000 281.240,16.180 281.600,16.400 281.600 C 16.620 281.600,16.800 281.960,16.800 282.400 C 16.800 282.840,16.960 283.200,17.156 283.200 C 17.352 283.200,17.747 283.998,18.036 284.974 C 18.324 285.950,18.704 286.660,18.880 286.551 C 19.056 286.442,19.200 286.651,19.200 287.014 C 19.200 287.378,19.740 288.660,20.400 289.863 C 21.060 291.065,21.600 292.319,21.600 292.648 C 21.600 292.978,21.780 293.136,22.000 293.000 C 22.220 292.864,22.400 293.089,22.400 293.501 C 22.400 293.912,22.760 294.636,23.200 295.108 C 23.640 295.580,24.000 296.244,24.000 296.583 C 24.000 296.922,24.136 297.200,24.302 297.200 C 24.621 297.200,25.708 299.407,25.858 300.360 C 25.907 300.668,26.132 301.034,26.358 301.174 C 26.584 301.314,27.043 302.084,27.378 302.887 C 27.714 303.689,28.166 304.455,28.383 304.590 C 28.601 304.724,29.073 305.455,29.433 306.213 C 29.793 306.972,30.276 307.477,30.506 307.335 C 30.738 307.191,30.806 307.267,30.658 307.506 C 30.512 307.742,30.664 308.207,30.996 308.539 C 31.328 308.871,31.600 309.436,31.600 309.795 C 31.600 310.154,31.780 310.336,32.000 310.200 C 32.220 310.064,32.400 310.233,32.400 310.576 C 32.400 310.919,32.580 311.200,32.800 311.200 C 33.020 311.200,33.200 311.443,33.200 311.741 C 33.200 312.038,33.740 312.846,34.400 313.537 C 35.060 314.228,35.600 315.025,35.600 315.308 C 35.600 315.591,35.960 316.083,36.400 316.400 C 36.840 316.717,37.200 317.207,37.200 317.488 C 37.200 317.770,37.380 318.000,37.600 318.000 C 37.820 318.000,38.000 318.270,38.000 318.600 C 38.000 318.930,38.180 319.200,38.400 319.200 C 38.620 319.200,38.800 319.470,38.800 319.800 C 38.800 320.130,38.980 320.400,39.200 320.400 C 39.420 320.400,39.600 320.700,39.600 321.067 C 39.600 321.433,39.719 321.614,39.865 321.469 C 40.010 321.323,40.586 321.878,41.145 322.702 C 42.418 324.579,42.824 325.090,43.700 325.917 C 44.085 326.280,44.400 326.808,44.400 327.089 C 44.400 327.370,44.591 327.600,44.824 327.600 C 45.057 327.600,45.136 327.780,45.000 328.000 C 44.864 328.220,45.033 328.400,45.376 328.400 C 45.719 328.400,46.000 328.542,46.000 328.717 C 46.000 328.891,46.630 329.701,47.400 330.518 C 48.170 331.334,48.800 332.172,48.800 332.380 C 48.800 332.844,55.999 340.000,56.466 340.000 C 56.650 340.000,56.800 340.258,56.800 340.573 C 56.800 340.888,57.151 341.257,57.580 341.394 C 58.008 341.530,58.470 341.992,58.606 342.420 C 58.743 342.849,58.995 343.200,59.168 343.200 C 59.551 343.200,61.191 344.773,63.653 347.504 C 64.673 348.635,65.618 349.449,65.753 349.313 C 65.889 349.178,66.000 349.336,66.000 349.666 C 66.000 349.995,66.491 350.520,67.091 350.832 C 67.691 351.145,68.905 352.075,69.789 352.900 C 70.673 353.725,71.542 354.400,71.721 354.400 C 71.901 354.400,71.919 354.608,71.762 354.862 C 71.589 355.141,71.652 355.215,71.919 355.050 C 72.162 354.900,73.001 355.398,73.783 356.157 C 74.564 356.916,75.788 357.903,76.502 358.350 C 77.216 358.797,78.287 359.622,78.883 360.182 C 79.478 360.742,80.153 361.200,80.383 361.200 C 80.612 361.200,80.800 361.338,80.800 361.506 C 80.800 361.674,81.520 362.256,82.400 362.800 C 83.280 363.344,84.000 363.926,84.000 364.094 C 84.000 364.262,84.278 364.400,84.618 364.400 C 84.958 364.400,85.686 364.850,86.236 365.400 C 86.786 365.950,87.380 366.400,87.556 366.400 C 87.732 366.400,88.399 366.850,89.038 367.400 C 89.677 367.949,90.425 368.399,90.700 368.400 C 90.975 368.400,91.200 368.580,91.200 368.800 C 91.200 369.020,91.545 369.200,91.967 369.200 C 92.388 369.200,92.793 369.336,92.867 369.503 C 93.101 370.036,96.280 372.386,96.487 372.180 C 96.596 372.070,96.914 372.255,97.192 372.590 C 97.470 372.926,97.946 373.200,98.249 373.200 C 98.552 373.200,98.800 373.410,98.800 373.667 C 98.800 373.923,98.914 374.019,99.054 373.880 C 99.193 373.740,99.757 373.980,100.308 374.413 C 100.858 374.846,101.561 375.200,101.871 375.200 C 102.180 375.200,102.820 375.560,103.292 376.000 C 103.764 376.440,104.387 376.800,104.675 376.800 C 104.964 376.800,105.200 376.980,105.200 377.200 C 105.200 377.420,105.560 377.600,106.000 377.600 C 106.440 377.600,106.800 377.780,106.800 378.000 C 106.800 378.220,107.160 378.400,107.600 378.400 C 108.040 378.400,108.400 378.580,108.400 378.800 C 108.400 379.020,108.695 379.200,109.056 379.200 C 109.416 379.200,110.589 379.740,111.662 380.400 C 112.734 381.060,113.810 381.600,114.052 381.600 C 114.293 381.600,115.146 381.937,115.946 382.348 C 119.613 384.233,122.704 385.600,123.300 385.600 C 123.659 385.600,124.064 385.780,124.200 386.000 C 124.336 386.220,124.807 386.400,125.247 386.400 C 125.687 386.400,125.960 386.542,125.852 386.715 C 125.745 386.888,126.126 387.069,126.698 387.116 C 127.270 387.164,128.305 387.537,128.999 387.946 C 129.692 388.355,131.191 388.929,132.330 389.221 C 133.468 389.512,134.400 389.912,134.400 390.109 C 134.400 390.306,134.625 390.386,134.900 390.288 C 135.175 390.190,135.893 390.359,136.496 390.663 C 137.099 390.967,137.684 391.210,137.797 391.203 C 138.690 391.148,141.200 391.773,141.200 392.051 C 141.200 392.243,141.931 392.400,142.824 392.400 C 143.717 392.400,144.348 392.560,144.227 392.757 C 144.020 393.091,144.859 393.307,148.500 393.857 C 149.325 393.982,150.000 394.245,150.000 394.442 C 150.000 394.639,150.630 394.800,151.400 394.800 C 152.170 394.800,152.800 394.980,152.800 395.200 C 152.800 395.420,153.599 395.600,154.576 395.600 C 155.553 395.600,156.464 395.780,156.600 396.000 C 156.736 396.220,157.657 396.400,158.647 396.400 C 159.637 396.400,160.356 396.548,160.244 396.729 C 160.132 396.911,160.976 397.101,162.120 397.152 C 163.264 397.204,164.371 397.415,164.580 397.623 C 164.789 397.830,165.813 398.000,166.856 398.000 C 167.899 398.000,168.864 398.180,169.000 398.400 C 169.136 398.620,170.482 398.800,171.990 398.800 C 173.569 398.800,174.793 398.980,174.875 399.225 C 174.968 399.505,179.258 399.730,187.508 399.887 L 200.000 400.126 200.000 333.002 L 200.000 265.878 190.069 275.787 C 184.606 281.238,179.431 286.124,178.569 286.646 C 176.635 287.817,172.322 287.980,170.280 286.960 C 168.450 286.046,86.145 203.772,85.087 201.800 C 82.554 197.074,84.015 193.566,91.429 186.576 C 97.993 180.388,98.266 180.130,105.774 173.000 C 112.600 166.518,113.986 165.639,117.400 165.629 C 121.411 165.618,121.513 165.705,145.905 190.065 C 169.755 213.883,169.890 214.000,173.453 214.000 C 176.778 214.000,178.132 212.953,189.375 201.695 L 200.000 191.053 200.000 95.514 L 200.000 -0.025 190.900 0.081 C 185.895 0.140,180.361 0.244,178.601 0.313 " stroke="none" fill="#04dc74" fill-rule="evenodd"></path><path id="path2" d="M200.000 95.441 L 200.000 190.990 238.700 152.347 C 279.690 111.417,278.605 112.400,282.824 112.400 C 286.911 112.400,287.475 112.842,301.919 127.360 C 316.522 142.038,316.727 142.313,316.287 146.578 C 315.902 150.307,315.609 150.617,257.013 209.199 L 200.000 266.199 200.000 333.156 L 200.000 400.112 211.700 399.835 C 224.993 399.520,225.200 399.508,225.200 399.100 C 225.200 398.935,226.460 398.800,228.000 398.800 C 229.600 398.800,230.800 398.629,230.800 398.400 C 230.800 398.175,231.925 398.000,233.376 398.000 C 234.793 398.000,236.064 397.820,236.200 397.600 C 236.336 397.380,237.247 397.200,238.224 397.200 C 239.201 397.200,240.000 397.020,240.000 396.800 C 240.000 396.580,240.731 396.400,241.624 396.400 C 242.604 396.400,243.149 396.242,243.000 396.000 C 242.847 395.752,243.596 395.600,244.976 395.600 C 246.199 395.600,247.200 395.420,247.200 395.200 C 247.200 394.980,247.920 394.800,248.800 394.800 C 249.680 394.800,250.400 394.620,250.400 394.400 C 250.400 394.180,251.131 394.000,252.024 394.000 C 253.004 394.000,253.549 393.842,253.400 393.600 C 253.253 393.363,253.718 393.200,254.543 393.200 C 255.308 393.200,255.993 393.026,256.067 392.813 C 256.140 392.600,256.785 392.381,257.500 392.328 C 258.215 392.274,258.800 392.111,258.800 391.966 C 258.800 391.822,259.716 391.582,260.835 391.433 C 261.954 391.285,263.169 391.005,263.535 390.812 C 264.233 390.443,267.462 389.215,267.797 389.192 C 268.207 389.163,269.429 388.726,270.095 388.371 C 270.477 388.167,271.152 388.000,271.595 388.000 C 272.038 388.000,272.400 387.820,272.400 387.600 C 272.400 387.380,272.749 387.200,273.176 387.200 C 273.603 387.200,274.064 387.020,274.200 386.800 C 274.336 386.580,274.797 386.400,275.224 386.400 C 275.651 386.400,276.000 386.220,276.000 386.000 C 276.000 385.780,276.540 385.600,277.200 385.600 C 277.860 385.600,278.400 385.420,278.400 385.200 C 278.400 384.980,278.683 384.800,279.029 384.800 C 279.374 384.800,279.929 384.528,280.261 384.196 C 280.593 383.864,281.030 383.695,281.232 383.820 C 281.435 383.945,281.600 383.857,281.600 383.624 C 281.600 383.391,281.960 383.200,282.400 383.200 C 282.840 383.200,283.200 383.020,283.200 382.800 C 283.200 382.580,283.560 382.400,284.000 382.400 C 284.440 382.400,284.800 382.220,284.800 382.000 C 284.800 381.780,285.340 381.600,286.000 381.600 C 286.660 381.600,287.200 381.420,287.200 381.200 C 287.200 380.980,287.605 380.797,288.100 380.794 C 288.828 380.789,288.885 380.714,288.400 380.400 C 287.932 380.098,288.043 380.011,288.900 380.006 C 289.505 380.003,290.000 379.820,290.000 379.600 C 290.000 379.380,290.345 379.200,290.767 379.200 C 291.188 379.200,291.593 379.065,291.667 378.900 C 291.872 378.438,295.192 376.801,295.938 376.794 C 296.512 376.789,296.520 376.736,296.000 376.400 C 295.515 376.086,295.572 376.011,296.300 376.006 C 296.795 376.003,297.200 375.820,297.200 375.600 C 297.200 375.380,297.538 375.200,297.951 375.200 C 298.364 375.200,298.924 374.932,299.196 374.604 C 299.468 374.277,299.836 374.098,300.013 374.208 C 300.190 374.318,300.607 374.136,300.939 373.804 C 301.271 373.472,301.826 373.200,302.171 373.200 C 302.517 373.200,302.800 373.020,302.800 372.800 C 302.800 372.580,303.120 372.400,303.512 372.400 C 303.903 372.400,304.483 372.040,304.800 371.600 C 305.117 371.160,305.605 370.800,305.884 370.800 C 306.353 370.800,307.330 370.121,308.616 368.900 C 308.906 368.625,309.386 368.400,309.683 368.400 C 309.980 368.400,310.483 368.040,310.800 367.600 C 311.117 367.160,311.657 366.800,312.000 366.800 C 312.343 366.800,312.883 366.440,313.200 366.000 C 313.517 365.560,314.001 365.200,314.274 365.200 C 314.548 365.200,314.965 364.840,315.200 364.400 C 315.435 363.960,315.892 363.600,316.214 363.600 C 316.536 363.600,316.800 363.420,316.800 363.200 C 316.800 362.980,317.120 362.800,317.512 362.800 C 317.903 362.800,318.483 362.440,318.800 362.000 C 319.117 361.560,319.625 361.200,319.928 361.200 C 320.231 361.200,320.983 360.660,321.600 360.000 C 322.217 359.340,322.919 358.800,323.160 358.800 C 323.402 358.800,323.600 358.609,323.600 358.376 C 323.600 358.143,323.761 358.052,323.957 358.174 C 324.154 358.295,324.739 357.857,325.257 357.201 C 325.776 356.544,326.385 356.006,326.612 356.004 C 326.838 356.002,328.252 354.830,329.754 353.400 C 331.257 351.970,332.619 350.800,332.782 350.800 C 333.314 350.800,334.792 349.325,334.526 349.059 C 334.383 348.917,334.480 348.800,334.741 348.800 C 335.360 348.800,340.413 343.747,340.104 343.437 C 339.973 343.307,340.155 343.200,340.506 343.200 C 340.858 343.200,341.260 342.840,341.400 342.400 C 341.540 341.960,341.815 341.600,342.011 341.600 C 342.460 341.600,349.747 334.404,349.315 334.388 C 349.142 334.381,349.315 334.192,349.700 333.968 C 350.085 333.744,350.400 333.371,350.400 333.141 C 350.400 332.910,350.940 332.217,351.600 331.600 C 352.260 330.983,352.800 330.271,352.800 330.016 C 352.800 329.761,352.980 329.664,353.200 329.800 C 353.420 329.936,353.600 329.737,353.600 329.357 C 353.600 328.977,353.719 328.786,353.864 328.931 C 354.113 329.180,355.513 327.538,355.273 327.279 C 355.211 327.212,355.728 326.627,356.423 325.979 C 357.117 325.331,357.531 324.795,357.342 324.788 C 357.154 324.781,357.315 324.592,357.700 324.368 C 358.085 324.144,358.400 323.771,358.400 323.540 C 358.400 323.309,359.030 322.490,359.800 321.720 C 360.570 320.950,361.200 320.134,361.200 319.907 C 361.200 319.680,361.588 319.158,362.061 318.747 C 362.535 318.336,362.715 318.000,362.462 318.000 C 362.208 318.000,362.721 317.258,363.600 316.352 C 364.480 315.445,365.200 314.495,365.200 314.240 C 365.200 313.985,365.560 313.517,366.000 313.200 C 366.440 312.883,366.800 312.343,366.800 312.000 C 366.800 311.657,367.160 311.117,367.600 310.800 C 368.040 310.483,368.400 309.903,368.400 309.512 C 368.400 309.120,368.591 308.800,368.824 308.800 C 369.057 308.800,369.136 308.620,369.000 308.400 C 368.864 308.180,369.033 308.000,369.376 308.000 C 369.779 308.000,370.000 307.637,370.000 306.976 C 370.000 306.396,370.173 306.060,370.400 306.200 C 370.620 306.336,370.800 306.249,370.800 306.007 C 370.800 305.765,371.160 305.180,371.600 304.708 C 372.040 304.236,372.400 303.568,372.401 303.225 C 372.401 302.881,372.941 301.970,373.600 301.200 C 374.260 300.430,374.909 299.215,375.044 298.500 C 375.179 297.785,375.449 297.200,375.645 297.200 C 375.840 297.200,376.000 296.922,376.000 296.583 C 376.000 296.244,376.360 295.580,376.800 295.108 C 377.240 294.636,377.600 294.013,377.600 293.725 C 377.600 293.436,377.780 293.200,378.000 293.200 C 378.220 293.200,378.400 292.840,378.400 292.400 C 378.400 291.960,378.580 291.600,378.800 291.600 C 379.020 291.600,379.200 291.240,379.200 290.800 C 379.200 290.360,379.380 290.000,379.600 290.000 C 379.820 290.000,380.000 289.640,380.000 289.200 C 380.000 288.760,380.180 288.400,380.400 288.400 C 380.620 288.400,380.800 288.040,380.800 287.600 C 380.800 287.160,380.980 286.800,381.200 286.800 C 381.420 286.800,381.600 286.350,381.600 285.800 C 381.600 285.250,381.780 284.800,382.000 284.800 C 382.220 284.800,382.400 284.440,382.400 284.000 C 382.400 283.560,382.580 283.200,382.800 283.200 C 383.020 283.200,383.200 282.840,383.200 282.400 C 383.200 281.960,383.380 281.600,383.600 281.600 C 383.820 281.600,384.000 281.240,384.000 280.800 C 384.000 280.360,384.180 280.000,384.400 280.000 C 384.620 280.000,384.800 279.460,384.800 278.800 C 384.800 278.140,384.980 277.600,385.200 277.600 C 385.420 277.600,385.600 277.139,385.600 276.576 C 385.600 275.996,385.773 275.660,386.000 275.800 C 386.220 275.936,386.400 275.758,386.400 275.404 C 386.400 275.051,386.760 274.016,387.200 273.106 C 387.640 272.195,388.000 271.124,388.000 270.725 C 388.000 270.326,388.180 270.000,388.400 270.000 C 388.620 270.000,388.800 269.359,388.800 268.576 C 388.800 267.729,388.962 267.253,389.200 267.400 C 389.427 267.540,389.600 267.204,389.600 266.624 C 389.600 266.061,389.780 265.600,390.000 265.600 C 390.220 265.600,390.403 265.285,390.406 264.900 C 390.409 264.515,390.671 263.480,390.988 262.600 C 391.305 261.720,391.573 260.415,391.582 259.700 C 391.592 258.985,391.780 258.400,392.000 258.400 C 392.220 258.400,392.400 257.860,392.400 257.200 C 392.400 256.540,392.580 256.000,392.800 256.000 C 393.020 256.000,393.200 255.809,393.200 255.576 C 393.200 255.343,393.020 255.264,392.800 255.400 C 392.580 255.536,392.400 255.457,392.400 255.224 C 392.400 254.991,392.580 254.800,392.800 254.800 C 393.020 254.800,393.200 254.350,393.200 253.800 C 393.200 253.250,393.341 252.800,393.513 252.800 C 393.685 252.800,393.864 252.340,393.910 251.779 C 393.957 251.217,394.176 250.419,394.397 250.005 C 394.619 249.591,394.800 248.690,394.800 248.003 C 394.800 247.315,394.947 246.844,395.126 246.955 C 395.306 247.065,395.496 246.311,395.548 245.278 C 395.600 244.245,395.813 243.340,396.021 243.267 C 396.230 243.193,396.400 242.338,396.400 241.367 C 396.400 240.395,396.580 239.600,396.800 239.600 C 397.020 239.600,397.200 238.700,397.200 237.600 C 397.200 236.500,397.380 235.600,397.600 235.600 C 397.822 235.600,398.000 234.533,398.000 233.200 C 398.000 231.867,398.178 230.800,398.400 230.800 C 398.620 230.800,398.800 230.429,398.800 229.976 C 398.800 229.434,398.630 229.249,398.300 229.435 C 397.900 229.661,397.900 229.610,398.300 229.179 C 398.575 228.882,398.800 227.686,398.800 226.520 C 398.800 225.354,398.956 224.400,399.147 224.400 C 399.669 224.400,399.800 219.554,399.800 200.200 C 399.800 180.318,399.659 174.800,399.152 174.800 C 398.958 174.800,398.800 173.540,398.800 172.000 C 398.800 170.400,398.629 169.200,398.400 169.200 C 398.178 169.200,398.000 168.133,398.000 166.800 C 398.000 165.467,397.822 164.400,397.600 164.400 C 397.380 164.400,397.200 163.515,397.200 162.433 C 397.200 161.352,397.020 160.407,396.801 160.333 C 396.581 160.260,396.372 159.435,396.335 158.500 C 396.299 157.565,396.118 156.800,395.934 156.800 C 395.750 156.800,395.600 155.990,395.600 155.000 C 395.600 154.010,395.420 153.200,395.200 153.200 C 394.980 153.200,394.800 152.495,394.800 151.633 C 394.800 150.772,394.626 150.007,394.413 149.933 C 394.200 149.860,393.982 149.227,393.930 148.528 C 393.877 147.828,393.691 147.344,393.517 147.451 C 393.343 147.559,393.200 147.007,393.200 146.224 C 393.200 145.441,393.058 144.800,392.885 144.800 C 392.607 144.800,392.448 144.168,392.309 142.500 C 392.286 142.225,392.117 142.000,391.933 142.000 C 391.750 142.000,391.600 141.391,391.600 140.646 C 391.600 139.398,390.813 136.263,389.956 134.100 C 389.115 131.975,388.685 130.957,388.353 130.305 C 388.159 129.923,388.000 129.248,388.000 128.805 C 388.000 128.362,387.820 128.000,387.600 128.000 C 387.380 128.000,387.200 127.460,387.200 126.800 C 387.200 126.140,387.020 125.600,386.800 125.600 C 386.580 125.600,386.400 125.240,386.400 124.800 C 386.400 124.360,386.220 124.000,386.000 124.000 C 385.780 124.000,385.600 123.550,385.600 123.000 C 385.600 122.450,385.420 122.000,385.200 122.000 C 384.980 122.000,384.800 121.539,384.800 120.976 C 384.800 120.396,384.627 120.060,384.400 120.200 C 384.177 120.338,384.000 120.034,384.000 119.512 C 384.000 118.997,383.644 118.320,383.209 118.006 C 382.627 117.587,382.548 117.354,382.909 117.124 C 383.294 116.879,383.292 116.811,382.900 116.806 C 382.625 116.803,382.400 116.440,382.400 116.000 C 382.400 115.560,382.220 115.200,382.000 115.200 C 381.780 115.200,381.600 114.761,381.600 114.224 C 381.600 113.687,381.420 113.136,381.200 113.000 C 380.980 112.864,380.800 112.393,380.800 111.953 C 380.800 111.513,380.620 111.264,380.400 111.400 C 380.178 111.537,379.997 111.236,379.994 110.724 C 379.989 109.981,379.912 109.917,379.600 110.400 C 379.286 110.885,379.211 110.828,379.206 110.100 C 379.203 109.605,379.059 109.200,378.887 109.200 C 378.715 109.200,378.534 108.715,378.485 108.122 C 378.436 107.530,378.262 106.945,378.097 106.822 C 377.933 106.700,377.544 106.105,377.232 105.500 C 376.920 104.895,376.515 104.400,376.332 104.400 C 376.150 104.400,376.000 104.040,376.000 103.600 C 376.000 103.160,375.840 102.800,375.645 102.800 C 375.449 102.800,375.171 102.170,375.026 101.400 C 374.882 100.630,374.592 100.000,374.382 100.000 C 374.172 100.000,374.000 99.811,374.000 99.581 C 374.000 99.350,373.280 98.077,372.400 96.752 C 371.520 95.427,370.800 94.253,370.800 94.143 C 370.800 94.033,370.575 93.692,370.300 93.385 C 369.091 92.038,368.863 91.670,369.091 91.443 C 369.224 91.309,369.123 91.200,368.867 91.200 C 368.610 91.200,368.400 90.880,368.400 90.488 C 368.400 90.097,368.040 89.517,367.600 89.200 C 367.160 88.883,366.800 88.343,366.800 88.000 C 366.800 87.657,366.440 87.117,366.000 86.800 C 365.560 86.483,365.199 86.038,365.198 85.812 C 365.197 85.585,364.657 84.825,363.998 84.122 C 363.339 83.419,362.800 82.564,362.800 82.222 C 362.800 81.652,362.387 81.448,361.746 81.700 C 361.508 81.794,360.803 80.365,360.582 79.339 C 360.527 79.086,359.924 78.294,359.241 77.580 C 358.559 76.866,358.000 76.156,358.000 76.002 C 358.000 75.482,356.510 74.000,355.986 74.000 C 355.701 74.000,355.580 73.886,355.719 73.747 C 356.096 73.370,355.221 71.940,354.780 72.212 C 354.571 72.342,354.400 72.066,354.400 71.600 C 354.400 71.134,354.220 70.864,354.000 71.000 C 353.780 71.136,353.600 71.044,353.600 70.795 C 353.600 70.185,352.558 69.176,352.248 69.486 C 352.111 69.622,352.000 69.433,352.000 69.067 C 352.000 68.700,351.832 68.400,351.627 68.400 C 351.422 68.400,351.140 68.040,351.000 67.600 C 350.860 67.160,350.443 66.797,350.073 66.794 C 349.666 66.790,349.568 66.672,349.826 66.494 C 350.083 66.316,348.779 64.736,346.526 62.495 C 344.477 60.457,342.800 58.910,342.800 59.056 C 342.800 59.203,342.442 58.890,342.006 58.361 C 341.569 57.833,340.804 56.910,340.306 56.312 C 339.807 55.714,339.145 55.219,338.833 55.212 C 338.522 55.205,338.378 55.089,338.514 54.952 C 338.821 54.645,337.818 53.600,337.216 53.600 C 336.973 53.600,336.656 53.291,336.511 52.913 C 336.137 51.938,332.923 48.800,332.299 48.800 C 332.012 48.800,331.524 48.450,331.215 48.021 C 330.907 47.593,330.507 47.334,330.327 47.445 C 330.147 47.556,330.000 47.367,330.000 47.024 C 330.000 46.681,329.742 46.400,329.427 46.400 C 329.112 46.400,328.749 46.069,328.620 45.664 C 328.492 45.259,327.895 44.677,327.293 44.370 C 326.692 44.062,325.804 43.404,325.319 42.906 C 324.835 42.408,324.276 42.000,324.078 42.000 C 323.881 42.000,323.152 41.458,322.459 40.797 C 321.767 40.135,321.197 39.820,321.194 40.097 C 321.190 40.447,321.076 40.423,320.820 40.019 C 320.618 39.700,320.542 39.295,320.650 39.119 C 320.758 38.944,320.477 38.800,320.024 38.800 C 319.571 38.800,319.200 38.620,319.200 38.400 C 319.200 38.180,318.919 38.000,318.576 38.000 C 318.233 38.000,318.064 37.820,318.200 37.600 C 318.336 37.380,318.193 37.200,317.883 37.200 C 317.573 37.200,316.754 36.660,316.063 36.000 C 315.372 35.340,314.575 34.800,314.292 34.800 C 314.009 34.800,313.517 34.440,313.200 34.000 C 312.883 33.560,312.343 33.200,312.000 33.200 C 311.657 33.200,311.117 32.840,310.800 32.400 C 310.483 31.960,309.903 31.600,309.512 31.600 C 309.120 31.600,308.800 31.390,308.800 31.133 C 308.800 30.877,308.691 30.776,308.558 30.909 C 308.425 31.042,307.930 30.751,307.458 30.263 C 306.986 29.776,306.105 29.161,305.500 28.897 C 304.895 28.633,304.400 28.233,304.400 28.009 C 304.400 27.784,304.068 27.600,303.661 27.600 C 303.255 27.600,302.507 27.240,302.000 26.800 C 301.153 26.066,300.632 25.848,299.938 25.940 C 299.794 25.959,299.457 25.710,299.189 25.387 C 298.921 25.064,298.364 24.800,297.951 24.800 C 297.538 24.800,297.200 24.620,297.200 24.400 C 297.200 24.180,296.795 23.997,296.300 23.994 C 295.572 23.989,295.515 23.914,296.000 23.600 C 296.485 23.286,296.428 23.211,295.700 23.206 C 295.205 23.203,294.800 23.020,294.800 22.800 C 294.800 22.580,294.440 22.400,294.000 22.400 C 293.560 22.400,293.200 22.220,293.200 22.000 C 293.200 21.780,292.951 21.600,292.646 21.600 C 291.816 21.600,289.973 20.560,290.273 20.261 C 290.416 20.117,290.043 20.000,289.443 20.000 C 288.818 20.000,288.458 19.829,288.600 19.600 C 288.736 19.380,288.602 19.200,288.303 19.200 C 287.549 19.200,285.607 18.265,285.603 17.900 C 285.601 17.735,285.186 17.600,284.680 17.600 C 283.626 17.600,281.608 16.747,281.603 16.300 C 281.601 16.135,281.240 16.000,280.800 16.000 C 280.360 16.000,280.000 15.820,280.000 15.600 C 280.000 15.380,279.640 15.200,279.200 15.200 C 278.760 15.200,278.400 15.020,278.400 14.800 C 278.400 14.580,277.759 14.400,276.976 14.400 C 276.129 14.400,275.653 14.238,275.800 14.000 C 275.936 13.780,275.677 13.600,275.224 13.600 C 274.771 13.600,274.400 13.420,274.400 13.200 C 274.400 12.980,273.950 12.800,273.400 12.800 C 272.850 12.800,272.400 12.658,272.400 12.485 C 272.400 12.312,272.066 12.145,271.658 12.114 C 271.250 12.084,270.125 11.702,269.158 11.267 C 267.577 10.555,265.927 10.051,265.096 10.026 C 264.929 10.020,264.248 9.735,263.584 9.392 C 262.920 9.048,262.214 8.868,262.016 8.990 C 261.818 9.113,261.542 9.030,261.404 8.807 C 261.266 8.583,260.623 8.400,259.976 8.400 C 259.329 8.400,258.800 8.220,258.800 8.000 C 258.800 7.780,258.170 7.600,257.400 7.600 C 256.630 7.600,256.000 7.420,256.000 7.200 C 256.000 6.980,255.471 6.800,254.824 6.800 C 254.177 6.800,253.536 6.620,253.400 6.400 C 253.264 6.180,252.433 6.000,251.553 6.000 C 250.588 6.000,250.051 5.841,250.200 5.600 C 250.349 5.358,249.804 5.200,248.824 5.200 C 247.931 5.200,247.200 5.020,247.200 4.800 C 247.200 4.580,246.495 4.400,245.633 4.400 C 244.755 4.400,243.978 4.180,243.864 3.900 C 243.711 3.522,243.548 3.547,243.200 4.000 C 242.852 4.453,242.689 4.478,242.536 4.100 C 242.425 3.825,241.808 3.600,241.167 3.600 C 240.525 3.600,240.000 3.420,240.000 3.200 C 240.000 2.980,239.136 2.800,238.080 2.800 C 237.024 2.800,235.918 2.575,235.621 2.300 C 235.190 1.900,235.139 1.900,235.365 2.300 C 235.520 2.575,235.457 2.800,235.224 2.800 C 234.991 2.800,234.800 2.620,234.800 2.400 C 234.800 2.180,234.001 2.000,233.024 2.000 C 232.047 2.000,231.136 1.820,231.000 1.600 C 230.864 1.380,229.503 1.200,227.976 1.200 C 226.449 1.200,225.200 1.027,225.200 0.816 C 225.200 0.605,224.705 0.433,224.100 0.435 C 223.495 0.436,217.825 0.314,211.500 0.164 L 200.000 -0.108 200.000 95.441 " stroke="none" fill="#04ac5c" fill-rule="evenodd"></path><path id="path3" d="M278.600 113.089 C 277.306 113.741,198.000 192.737,198.000 193.375 C 198.000 193.586,215.910 175.863,237.800 153.990 C 280.062 111.760,278.883 112.843,282.651 112.817 C 286.867 112.788,287.114 112.977,301.253 127.133 C 315.668 141.564,315.788 141.719,315.772 145.800 C 315.757 149.764,319.843 145.420,256.035 209.300 C 224.006 241.365,197.977 267.600,198.192 267.600 C 198.880 267.600,313.582 152.675,314.842 150.724 C 316.436 148.254,316.796 145.170,315.801 142.503 C 314.961 140.252,290.002 114.790,287.135 113.260 C 285.181 112.217,280.518 112.123,278.600 113.089 M109.554 169.443 C 108.006 170.897,106.911 172.022,107.122 171.943 C 107.622 171.756,112.900 166.800,112.599 166.800 C 112.472 166.800,111.102 167.990,109.554 169.443 M145.084 189.585 C 157.450 202.005,167.620 212.084,167.684 211.983 C 167.748 211.882,157.630 201.721,145.200 189.402 L 122.600 167.004 145.084 189.585 M101.944 176.607 C 100.483 178.033,99.408 179.200,99.555 179.200 C 99.703 179.200,100.983 178.030,102.400 176.600 C 103.817 175.170,104.892 174.003,104.788 174.007 C 104.685 174.011,103.405 175.181,101.944 176.607 M94.540 183.608 C 93.187 184.923,92.202 186.000,92.352 186.000 C 92.502 186.000,93.694 184.920,95.000 183.600 C 98.074 180.494,97.736 180.500,94.540 183.608 M87.866 189.961 C 86.400 191.480,85.200 192.844,85.200 192.993 C 85.200 193.142,86.122 192.256,87.248 191.023 C 88.375 189.791,89.749 188.426,90.302 187.991 C 90.855 187.556,91.133 187.200,90.920 187.200 C 90.706 187.200,89.332 188.442,87.866 189.961 M195.385 195.679 C 194.293 196.822,193.757 197.497,194.193 197.179 C 195.109 196.510,196.360 195.289,197.149 194.293 C 198.223 192.937,197.340 193.631,195.385 195.679 M84.109 197.600 C 84.109 198.590,84.187 198.995,84.282 198.500 C 84.378 198.005,84.378 197.195,84.282 196.700 C 84.187 196.205,84.109 196.610,84.109 197.600 M190.370 200.700 L 189.400 201.800 190.600 200.800 C 191.260 200.250,191.875 199.755,191.967 199.700 C 192.058 199.645,191.955 199.600,191.736 199.600 C 191.518 199.600,190.903 200.095,190.370 200.700 M85.522 202.600 C 85.758 203.040,104.637 222.030,127.475 244.800 L 168.998 286.200 127.199 244.214 C 104.210 221.122,85.331 202.132,85.246 202.014 C 85.161 201.896,85.285 202.160,85.522 202.600 M187.200 203.800 C 186.228 204.790,185.523 205.600,185.633 205.600 C 185.743 205.600,186.628 204.790,187.600 203.800 C 188.572 202.810,189.277 202.000,189.167 202.000 C 189.057 202.000,188.172 202.810,187.200 203.800 M179.771 211.289 C 179.127 211.993,178.959 212.306,179.398 211.985 C 180.653 211.066,181.311 210.378,181.118 210.185 C 181.021 210.088,180.415 210.585,179.771 211.289 " stroke="none" fill="#68d7a5" fill-rule="evenodd"></path><path id="path4" d="M300.126 126.396 C 307.195 133.438,313.072 139.200,313.187 139.200 C 313.508 139.200,290.393 116.103,288.737 114.769 C 287.932 114.121,293.057 119.353,300.126 126.396 M315.709 145.600 C 315.709 146.590,315.787 146.995,315.882 146.500 C 315.978 146.005,315.978 145.195,315.882 144.700 C 315.787 144.205,315.709 144.610,315.709 145.600 M246.800 218.201 C 207.148 257.854,178.830 285.873,178.016 286.260 C 175.875 287.277,173.452 287.402,171.295 286.606 C 169.643 285.996,164.036 280.562,127.600 244.254 L 85.800 202.602 127.400 244.303 C 171.192 288.202,170.542 287.600,174.200 287.600 C 178.022 287.600,175.603 289.899,246.886 218.535 C 283.909 181.471,314.275 151.068,314.367 150.973 C 314.458 150.878,314.458 150.800,314.366 150.800 C 314.274 150.800,283.869 181.131,246.800 218.201 M114.451 166.281 C 113.344 166.673,111.731 167.851,110.051 169.495 L 107.400 172.091 110.161 169.643 C 114.010 166.230,116.277 165.539,120.027 166.636 C 122.122 167.248,123.029 168.098,145.200 190.192 C 157.850 202.798,168.802 213.416,169.538 213.787 C 171.483 214.765,175.445 214.705,177.429 213.666 C 179.365 212.653,181.579 210.834,180.900 210.814 C 180.625 210.806,180.400 210.942,180.400 211.115 C 180.400 212.181,176.074 214.000,173.542 214.000 C 169.492 214.000,169.633 214.120,145.386 189.940 C 119.052 163.678,119.926 164.346,114.451 166.281 M99.574 179.338 C 95.930 182.892,93.950 184.891,95.174 183.780 C 96.398 182.668,98.840 180.391,100.600 178.719 C 102.360 177.046,104.410 175.115,105.155 174.427 C 105.900 173.739,106.440 173.109,106.355 173.026 C 106.270 172.943,103.218 175.783,99.574 179.338 M88.190 190.010 C 86.889 191.325,85.923 192.400,86.042 192.400 C 86.378 192.400,90.870 187.936,90.702 187.769 C 90.621 187.688,89.490 188.696,88.190 190.010 M199.200 192.200 C 198.683 192.750,198.390 193.200,198.548 193.200 C 198.707 193.200,199.286 192.750,199.836 192.200 C 200.386 191.650,200.680 191.200,200.488 191.200 C 200.296 191.200,199.717 191.650,199.200 192.200 M195.647 195.830 C 194.463 197.038,193.573 198.107,193.670 198.203 C 193.767 198.300,194.910 197.304,196.210 195.990 C 197.511 194.675,198.401 193.607,198.187 193.616 C 197.974 193.625,196.831 194.621,195.647 195.830 M84.649 195.015 C 84.512 195.373,84.418 196.056,84.441 196.533 C 84.467 197.081,84.603 196.886,84.810 196.003 C 85.160 194.516,85.065 193.933,84.649 195.015 M84.406 198.833 C 84.409 199.365,84.589 200.070,84.806 200.400 C 85.082 200.822,85.123 200.585,84.942 199.600 C 84.625 197.875,84.398 197.549,84.406 198.833 M186.987 204.413 C 184.582 206.826,182.748 208.800,182.911 208.800 C 183.309 208.800,191.715 200.381,191.516 200.182 C 191.430 200.097,189.392 202.001,186.987 204.413 " stroke="none" fill="#84ecbc" fill-rule="evenodd"></path></g></svg>